<?xml version="1.0" standalone="no"?><!DOCTYPE svg PUBLIC "-//W3C//DTD SVG 1.1//EN" "http://www.w3.org/Graphics/SVG/1.1/DTD/svg11.dtd"><svg height="550" legacy-metrics="false" node-id="1" sillyvg="true" template-height="550" template-width="550" version="1.1" viewBox="0 0 550 550" width="550" xmlns="http://www.w3.org/2000/svg" xmlns:xlink="http://www.w3.org/1999/xlink"><defs node-id="92"><linearGradient gradientUnits="userSpaceOnUse" id="未命名的渐变_432" node-id="5" x1="-413809.1" x2="-414183.56" y1="-38615.2" y2="-38611.203"><stop offset="0" stop-color="#b7e0fe"></stop><stop offset="1" stop-color="#d0fbff"></stop></linearGradient><linearGradient gradientUnits="userSpaceOnUse" id="未命名的渐变_433" node-id="8" x1="-835.78" x2="-839.56" y1="-742.47" y2="-495.35"><stop offset="0" stop-color="#c3e8ff"></stop><stop offset="1" stop-color="#5cb3fc"></stop></linearGradient><linearGradient gradientUnits="userSpaceOnUse" id="未命名的渐变_434" node-id="11" x1="-1333.22" x2="-1062.91" y1="-510.08" y2="-442.5"><stop offset="0" stop-color="#fffea4"></stop><stop offset="1" stop-color="#bbed6c"></stop></linearGradient><linearGradient gradientUnits="userSpaceOnUse" id="未命名的渐变_447" node-id="14" x1="-19239.82" x2="-19239.19" y1="-16755.12" y2="-16722.29"><stop offset="0" stop-color="#6b3c5d"></stop><stop offset="1" stop-color="#372732"></stop></linearGradient><linearGradient gradientUnits="userSpaceOnUse" id="未命名的渐变_447-2" node-id="17" x1="-44267.168" x2="-44259.527" y1="-9589.254" y2="-9585.598"><stop offset="0" stop-color="#6b3c5d"></stop><stop offset="1" stop-color="#372732"></stop></linearGradient><linearGradient gradientUnits="userSpaceOnUse" id="未命名的渐变_438" node-id="18" x1="-1167.09" x2="-1236.51" y1="-462.51" y2="-523.14"><stop offset="0" stop-color="#fb8460"></stop><stop offset="1" stop-color="#ffc4a7"></stop></linearGradient><linearGradient gradientUnits="userSpaceOnUse" id="未命名的渐变_438-2" node-id="21" x1="-87027.83" x2="-87027.83" y1="-23892.045" y2="-23933.617"><stop offset="0" stop-color="#fb8460"></stop><stop offset="1" stop-color="#ffc4a7"></stop></linearGradient><linearGradient gradientUnits="userSpaceOnUse" id="未命名的渐变_449" node-id="22" x1="-1225.52" x2="-1094.57" y1="-547.41" y2="-524.15"><stop offset="0" stop-color="#c088c9"></stop><stop offset="1" stop-color="#2a22ec"></stop></linearGradient><linearGradient gradientUnits="userSpaceOnUse" id="未命名的渐变_447-3" node-id="25" x1="-52648.832" x2="-52644.95" y1="-27792.162" y2="-27729.781"><stop offset="0" stop-color="#6b3c5d"></stop><stop offset="1" stop-color="#372732"></stop></linearGradient><linearGradient gradientUnits="userSpaceOnUse" id="未命名的渐变_448" node-id="26" x1="-1209.15" x2="-1283.66" y1="-639.72" y2="-692.94"><stop offset="0" stop-color="#fb8460"></stop><stop offset="1" stop-color="#ffd8c4"></stop></linearGradient><linearGradient gradientUnits="userSpaceOnUse" id="未命名的渐变_448-2" node-id="29" x1="-1236.15" x2="-1224.58" y1="-557.05" y2="-636.66"><stop offset="0" stop-color="#fb8460"></stop><stop offset="1" stop-color="#ffd8c4"></stop></linearGradient><linearGradient gradientUnits="userSpaceOnUse" id="未命名的渐变_449-2" node-id="30" x1="-1213.26" x2="-1159.61" y1="-623.02" y2="-572.13"><stop offset="0" stop-color="#c088c9"></stop><stop offset="1" stop-color="#2a22ec"></stop></linearGradient><linearGradient gradientUnits="userSpaceOnUse" id="未命名的渐变_446" node-id="31" x1="-1199.47" x2="-1126.66" y1="-585.46" y2="-583.14"><stop offset="0" stop-color="#f2a1ff"></stop><stop offset="1" stop-color="#9022ec"></stop></linearGradient><linearGradient gradientTransform="matrix(51.37 -1.35 -1.35 90.07 58464.71 46004.77)" gradientUnits="userSpaceOnUse" id="未命名的渐变_445" node-id="34" x1="-1148.73" x2="-1148.35" y1="-527.1" y2="-525.27"><stop offset="0" stop-color="#85c0f8"></stop><stop offset="1" stop-color="#0058af"></stop></linearGradient><linearGradient gradientTransform="matrix(1 0.03 0.03 -1 1443.5 851.05)" gradientUnits="userSpaceOnUse" id="未命名的渐变_446-2" node-id="37" x1="-1300.08" x2="-1235.49" y1="617.41" y2="603.92"><stop offset="0" stop-color="#f2a1ff"></stop><stop offset="1" stop-color="#9022ec"></stop></linearGradient><linearGradient gradientTransform="matrix(6.87 -0.89 -0.9 32.47 8986.14 17288.17)" gradientUnits="userSpaceOnUse" id="未命名的渐变_447-4" node-id="38" x1="-1354.56" x2="-1354.55" y1="-562.16" y2="-561.16"><stop offset="0" stop-color="#6b3c5d"></stop><stop offset="1" stop-color="#372732"></stop></linearGradient><linearGradient gradientTransform="matrix(0.99 -0.1 -0.1 -0.99 1405.91 971.48)" gradientUnits="userSpaceOnUse" id="未命名的渐变_448-3" node-id="39" x1="-1082.38" x2="-1111.38" y1="775.94" y2="859.48"><stop offset="0" stop-color="#fb8460"></stop><stop offset="1" stop-color="#ffd8c4"></stop></linearGradient><linearGradient gradientTransform="matrix(0.99 -0.1 -0.1 -0.99 1405.91 971.48)" gradientUnits="userSpaceOnUse" id="未命名的渐变_449-3" node-id="40" x1="-1096.95" x2="-1015.51" y1="833.67" y2="833.13"><stop offset="0" stop-color="#c088c9"></stop><stop offset="1" stop-color="#2a22ec"></stop></linearGradient><linearGradient gradientUnits="userSpaceOnUse" id="未命名的渐变_450" node-id="41" x1="-26453.154" x2="-26439.572" y1="-9903.982" y2="-9894.609"><stop offset="0" stop-color="#fffea4"></stop><stop offset="1" stop-color="#9fd14f"></stop></linearGradient></defs><g node-id="94"><g node-id="95"><path d="M 0.00 52.26 L 497.25 -0.01 L 549.52 497.24 L 52.27 549.51 Z" fill="none" group-id="1,2" id="Rectangle" node-id="47" stroke-linecap="butt" stroke-width="1" target-height="549.51416" target-width="549.51416" target-x="0.00248909" target-y="-0.006948471"></path><g node-id="96"><path d="M 70.72 192.75 L 456.72 192.75 L 456.72 272.75 L 70.72 272.75 C 59.12 272.75 49.72 263.35 49.72 251.75 L 49.72 213.75 C 49.72 202.15 59.12 192.75 70.72 192.75 Z" fill="url(#未命名的渐变_432)" fill-rule="nonzero" group-id="1,2,3" id="Rectangle-2" node-id="49" stroke="none" target-height="80" target-width="407" target-x="49.72" target-y="192.75"></path><path d="M 456.72 192.75 L 493.62 187.25 C 502.90 185.88 511.53 192.28 512.92 201.55 C 513.04 202.41 513.10 203.28 513.12 204.15 L 512.92 266.45 C 512.91 270.97 511.11 275.29 507.89 278.47 C 504.68 281.64 500.34 283.40 495.82 283.35 C 494.26 283.37 492.70 283.13 491.22 282.65 L 456.72 272.75 L 456.72 272.75 L 456.72 192.75 Z" fill="url(#未命名的渐变_433)" fill-rule="nonzero" group-id="1,2,3" id="Rectangle-3" node-id="50" stroke="none" target-height="96.26834" target-width="56.399994" target-x="456.72" target-y="187.08167"></path><path d="M 415.00 348.15 L 509.60 406.95 L 509.60 470.85 L 509.60 470.85 C 509.60 486.31 497.06 498.85 481.60 498.85 L 481.60 498.85 L 75.10 498.75 C 59.64 498.75 47.10 486.21 47.10 470.75 L 47.10 470.75 L 47.10 351.15 Z M 497.80 347.45 C 505.19 352.69 509.59 361.19 509.60 370.25 L 509.60 370.25 L 509.60 399.00 L 424.90 348.00 Z M 375.50 323.55 L 407.90 343.65 L 47.50 346.65 C 49.86 333.47 61.21 323.80 74.60 323.55 L 375.50 323.55 Z M 429.10 323.55 C 432.30 323.58 435.47 324.12 438.50 325.15 L 438.50 325.15 L 488.60 343.05 L 417.60 343.65 L 384.30 323.55 Z" fill="url(#未命名的渐变_434)" fill-rule="nonzero" group-id="1,2,3" id="Combined-Shape" node-id="51" stroke="none" target-height="175.30002" target-width="462.5" target-x="47.1" target-y="323.55"></path><path d="M 323.29 419.79 L 323.17 421.18 L 322.57 422.65 L 321.34 424.27 L 319.31 426.08 L 316.37 428.05 L 312.36 430.18 L 307.06 432.48 L 301.68 434.45 L 295.36 436.47 L 288.00 438.51 L 276.64 441.18 L 263.56 443.72 L 249.98 445.84 L 235.21 447.64 L 220.40 448.95 L 206.67 449.70 L 193.36 449.94 L 181.69 449.68 L 174.06 449.21 L 167.46 448.56 L 161.78 447.75 L 156.12 446.60 L 151.76 445.35 L 148.48 444.04 L 146.11 442.69 L 144.57 441.36 L 143.68 440.04 L 143.28 438.71 L 143.39 437.31 L 143.99 435.84 L 145.22 434.22 L 147.25 432.41 L 150.19 430.44 L 154.20 428.31 L 159.50 426.01 L 164.89 424.04 L 171.21 422.02 L 178.56 419.98 L 189.93 417.31 L 203.00 414.77 L 216.58 412.65 L 231.35 410.85 L 246.17 409.54 L 259.89 408.79 L 273.21 408.55 L 284.88 408.81 L 292.50 409.28 L 299.10 409.93 L 304.78 410.74 L 310.44 411.89 L 314.80 413.14 L 318.09 414.45 L 320.45 415.80 L 321.99 417.13 L 322.89 418.45 L 323.29 419.79 Z" fill="#000000" fill-opacity="0.09" fill-rule="nonzero" group-id="1,2,3" id="Oval" node-id="52" stroke-linecap="butt" stroke-width="1" target-height="41.384094" target-width="180.0084" target-x="143.27675" target-y="408.5532"></path><g node-id="97"><path d="M 310.34 349.25 C 308.94 351.25 308.64 354.55 308.94 357.15 C 309.24 359.75 312.64 368.05 311.44 373.35 C 310.24 378.65 310.34 381.05 314.64 380.25 C 319.74 379.35 322.34 374.35 323.54 368.65 C 324.59 364.23 324.92 359.67 324.54 355.15 C 324.44 351.75 323.84 348.25 321.64 347.85 C 318.44 347.15 311.34 347.85 310.34 349.25 Z" fill="url(#未命名的渐变_447)" fill-rule="nonzero" group-id="1,2,3,4" id="Path" node-id="54" stroke="none" target-height="32.804413" target-width="15.848175" target-x="308.83505" target-y="347.59073"></path><path d="M 181.24 417.35 C 183.24 417.35 183.24 419.25 184.74 419.25 C 187.54 419.25 185.74 417.85 188.14 417.95 C 188.74 417.95 189.74 422.55 191.34 431.75 C 190.03 434.02 187.41 435.19 184.84 434.65 C 180.14 433.85 178.64 431.55 175.64 431.55 C 169.54 431.45 169.04 433.55 162.94 432.85 C 153.54 431.85 153.04 429.35 153.04 429.35 C 153.04 429.35 153.54 424.55 155.84 423.45 C 158.14 422.35 164.04 422.25 169.14 421.25 C 175.34 420.00 180.44 417.35 181.24 417.35 Z" fill="url(#未命名的渐变_447-2)" fill-rule="nonzero" group-id="1,2,3,4" id="Path-2" node-id="55" stroke="none" target-height="17.391968" target-width="38.300003" target-x="153.04" target-y="417.35"></path><path d="M 239.64 306.25 C 239.64 306.25 196.04 335.85 194.74 339.65 C 193.94 342.15 189.77 368.35 182.24 418.25 C 182.15 418.78 182.29 419.32 182.61 419.76 C 182.93 420.19 183.41 420.48 183.94 420.55 L 184.14 420.55 C 185.48 420.55 186.69 419.76 187.24 418.55 C 189.34 413.35 192.54 406.05 196.94 396.95 C 204.34 381.25 208.64 370.45 210.04 361.35 C 210.81 355.50 210.23 349.54 208.34 343.95 C 208.34 343.95 252.64 329.95 266.24 324.25 C 283.94 317.00 263.84 294.35 239.64 306.25 Z" fill="url(#未命名的渐变_438)" fill-rule="nonzero" group-id="1,2,3,4" id="Path-3" node-id="56" stroke="none" target-height="117.64984" target-width="90.72887" target-x="182.24" target-y="302.90015"></path><path d="M 210.54 343.35 C 209.44 343.75 208.64 343.95 208.44 344.05 L 208.34 344.05 C 210.13 349.35 210.75 354.98 210.14 360.55 L 205.04 344.25 Z" fill="#372732" fill-opacity="0.3" fill-rule="nonzero" group-id="1,2,3,4" id="Combined-Shape-2" node-id="57" stroke="none" target-height="17.199982" target-width="5.5" target-x="205.04" target-y="343.35"></path><path d="M 229.74 313.15 L 253.24 329.15 C 249.44 330.45 245.24 331.95 241.04 333.35 L 229.64 313.25 C 229.64 313.19 229.68 313.15 229.74 313.15 Z" fill="#372732" fill-opacity="0.3" fill-rule="nonzero" group-id="1,2,3,4" id="Combined-Shape-3" node-id="58" stroke="none" target-height="20.200012" target-width="23.600006" target-x="229.64" target-y="313.15"></path><path d="M 246.44 324.25 C 246.44 324.25 235.24 365.95 238.64 369.25 C 242.04 372.55 246.64 374.25 255.84 370.15 C 265.04 366.05 312.54 355.85 312.54 355.85 C 315.54 355.65 315.04 351.65 312.84 351.35 C 312.84 351.35 296.84 351.85 281.94 350.65 C 272.44 349.85 259.74 354.45 260.14 353.75 L 274.64 332.05 Z" fill="url(#未命名的渐变_438-2)" fill-rule="nonzero" group-id="1,2,3,4" id="Path-4" node-id="59" stroke="none" target-height="48.28882" target-width="76.61124" target-x="238.02878" target-y="324.25"></path><path d="M 260.14 353.85 C 260.44 354.15 272.74 349.85 281.94 350.65 L 281.74 350.65 L 254.64 359.55 Z" fill="#372732" fill-opacity="0.09" fill-rule="nonzero" group-id="1,2,3,4" id="Combined-Shape-4" node-id="60" stroke="none" target-height="8.980743" target-width="27.300003" target-x="254.64" target-y="350.56924"></path><path d="M 244.84 332.00 L 271.94 336.10 C 270.84 337.70 269.54 339.60 268.24 341.60 C 264.75 340.33 261.13 339.46 257.44 339.00 C 253.34 338.60 249.14 336.20 244.84 332.00 Z" fill="#372732" fill-opacity="0.3" fill-rule="nonzero" group-id="1,2,3,4" id="Combined-Shape-5" node-id="61" stroke="none" target-height="9.600006" target-width="27.100006" target-x="244.84" target-y="332"></path><path d="M 242.94 300.00 L 228.34 311.10 C 228.34 311.10 242.24 337.80 258.44 337.70 C 274.64 337.60 276.24 341.60 284.84 339.90 C 292.64 338.40 295.14 330.70 295.14 330.70 L 276.34 302.10 Z" fill="url(#未命名的渐变_449)" fill-rule="nonzero" group-id="1,2,3,4" id="Path-5" node-id="62" stroke="none" target-height="40.296448" target-width="66.80002" target-x="228.34" target-y="300"></path><path d="M 255.00 300.75 L 276.30 302.05 L 280.00 307.65 C 273.84 308.53 267.61 308.77 261.40 308.35 C 254.38 307.79 247.65 305.26 242.00 301.05 L 242.00 301.05 Z" fill="#372732" fill-opacity="0.3" fill-rule="nonzero" group-id="1,2,3,4" id="Combined-Shape-6" node-id="63" stroke="none" target-height="7.800659" target-width="38" target-x="242" target-y="300.75"></path><g node-id="98"><path d="M 217.89 261.13 C 216.19 259.83 216.39 255.93 219.19 254.53 C 222.79 252.73 220.29 250.53 222.29 247.43 C 223.49 245.43 226.19 245.73 225.99 242.43 C 225.79 239.43 222.69 237.83 223.49 232.43 C 224.29 226.13 229.09 225.33 228.29 221.13 C 227.49 216.93 228.29 213.53 230.99 210.53 C 233.19 208.13 234.49 209.03 236.49 206.33 C 237.99 204.33 237.99 203.23 239.99 201.43 C 243.29 198.33 250.59 197.33 255.59 202.23 C 260.59 207.13 259.89 211.83 258.89 214.83 C 257.89 217.83 260.39 219.03 259.99 221.93 C 259.62 223.93 258.56 225.73 256.99 227.03 C 255.59 228.23 254.39 229.33 252.29 231.23 C 248.89 234.23 232.59 248.43 232.59 248.43 C 232.59 248.43 218.49 261.63 217.89 261.13 Z" fill="url(#未命名的渐变_447-3)" fill-rule="nonzero" group-id="1,2,3,4,5" id="Path-6" node-id="65" stroke="none" target-height="62.267883" target-width="43.140747" target-x="216.84924" target-y="198.86212"></path><path d="M 241.59 239.43 C 241.59 239.43 244.29 238.13 244.19 233.23 C 244.09 227.03 242.49 225.83 242.49 225.83 C 242.49 225.83 238.89 226.73 237.69 223.83 C 236.49 220.93 238.29 220.03 238.29 220.03 L 240.59 219.03 L 241.19 216.73 L 256.29 214.63 C 256.29 214.63 258.89 228.73 254.49 229.83 C 253.98 229.96 253.48 230.13 252.99 230.33 C 252.99 230.33 253.69 236.43 254.39 237.93 C 255.09 239.43 255.19 249.13 255.19 249.13 L 248.69 255.13 L 241.79 254.53 L 239.79 246.03 Z" fill="url(#未命名的渐变_448)" fill-rule="nonzero" group-id="1,2,3,4,5" id="Path-7" node-id="66" stroke="none" target-height="40.5" target-width="19.72052" target-x="237.3039" target-y="214.63"></path><path d="M 241.59 239.43 C 241.69 244.63 242.59 247.83 244.39 248.93 C 246.19 250.03 247.79 251.03 249.29 251.93 L 241.69 253.23 L 239.89 245.83 Z" fill="#372732" fill-opacity="0.19" fill-rule="nonzero" group-id="1,2,3,4,5" id="Combined-Shape-7" node-id="67" stroke="none" target-height="13.800003" target-width="9.399994" target-x="239.89" target-y="239.43"></path><path d="M 248.49 228.93 L 252.99 230.23 C 252.99 230.43 253.19 232.13 253.49 234.03 Z" fill="#372732" fill-opacity="0.19" fill-rule="nonzero" group-id="1,2,3,4,5" id="Combined-Shape-8" node-id="68" stroke="none" target-height="5.100006" target-width="5" target-x="248.49" target-y="228.93"></path><path d="M 240.59 218.83 C 240.59 218.83 241.99 221.23 242.49 221.03 C 242.99 220.83 242.49 217.73 242.49 217.73 Z" fill="#372732" fill-rule="nonzero" group-id="1,2,3,4,5" id="Path-8" node-id="69" stroke="none" target-height="3.300003" target-width="2.1222076" target-x="240.59" target-y="217.73"></path><path d="M 237.00 215.53 L 238.30 220.03 C 244.20 217.13 250.10 215.23 256.50 216.13 L 256.30 210.13 C 250.69 209.00 243.00 210.53 237.00 215.53 Z" fill="#f3f3f3" fill-rule="nonzero" group-id="1,2,3,4,5" id="Path-9" node-id="70" stroke="none" target-height="10.237579" target-width="19.5" target-x="237" target-y="209.79242"></path></g><path d="M 229.74 246.15 L 201.34 256.45 C 199.97 252.87 198.16 249.48 195.94 246.35 C 192.44 241.55 180.74 226.35 179.34 223.65 C 177.94 220.95 183.14 213.45 182.04 212.85 C 180.24 211.95 177.74 217.35 177.74 217.35 C 177.74 217.35 174.54 213.45 172.84 211.85 C 170.24 209.55 167.94 206.05 167.44 206.45 C 166.34 207.35 171.44 213.55 171.44 213.55 C 171.44 213.55 166.44 207.35 165.64 207.85 C 164.84 208.35 169.74 214.55 169.74 214.55 C 169.74 214.55 164.54 209.35 164.14 209.65 C 163.74 209.95 168.74 216.25 168.74 216.25 C 168.74 216.25 164.14 211.15 163.54 211.45 C 162.94 211.75 167.64 217.95 167.64 217.95 C 167.64 217.95 172.84 224.15 174.44 225.25 C 176.74 226.85 193.04 267.55 199.34 268.95 C 203.44 269.85 231.14 262.35 231.14 262.35 C 234.64 257.25 235.44 255.55 235.34 252.75 C 235.14 249.55 233.74 247.00 229.74 246.15 Z" fill="url(#未命名的渐变_448-2)" fill-rule="nonzero" group-id="1,2,3,4" id="Path-10" node-id="71" stroke="none" target-height="62.567368" target-width="71.829575" target-x="163.51042" target-y="206.45"></path><path d="M 233.14 253.55 L 233.14 259.25 C 232.54 260.15 231.94 261.15 231.04 262.45 C 231.04 262.45 217.64 266.35 209.94 267.55 Z" fill="#372732" fill-opacity="0.13" fill-rule="nonzero" group-id="1,2,3,4" id="Combined-Shape-9" node-id="72" stroke="none" target-height="13.999985" target-width="23.199997" target-x="209.94" target-y="253.55"></path><path d="M 236.74 241.45 C 234.97 242.08 233.26 242.89 231.64 243.85 C 229.94 244.85 227.64 246.05 224.84 247.75 L 230.74 263.35 C 233.94 263.21 236.63 260.89 237.24 257.75 C 238.14 254.35 237.94 249.00 236.74 241.45 Z" fill="url(#未命名的渐变_449-2)" fill-rule="nonzero" group-id="1,2,3,4" id="Path-113" node-id="73" stroke="none" target-height="21.90001" target-width="12.954849" target-x="224.84" target-y="241.45"></path><path d="M 233.14 252.85 C 232.24 256.95 233.14 269.65 236.84 275.95 C 240.54 282.25 246.64 289.35 245.44 293.35 C 244.53 296.04 243.14 298.55 241.34 300.75 C 241.34 300.75 247.74 304.55 259.44 305.25 C 271.14 305.95 277.84 303.45 277.84 303.35 C 277.84 303.25 273.74 299.15 275.74 285.45 C 277.74 271.75 282.74 250.65 274.14 241.55 C 267.74 234.85 254.54 237.45 254.54 237.45 C 254.54 237.45 249.04 251.65 242.94 250.45 C 239.94 249.85 241.54 239.15 241.54 239.15 C 239.53 239.55 237.62 240.37 235.94 241.55 C 235.00 242.15 234.00 248.75 233.14 252.85 Z" fill="url(#未命名的渐变_446)" fill-rule="nonzero" group-id="1,2,3,4" id="Path-11" node-id="74" stroke="none" target-height="68.37015" target-width="46.19763" target-x="232.81812" target-y="236.98508"></path><path d="M 274.64 246.85 C 279.24 253.85 279.04 259.85 274.24 264.75 C 269.44 269.65 261.24 274.35 249.74 278.75 L 249.74 278.75 Z" fill="#372732" fill-opacity="0.19" fill-rule="nonzero" group-id="1,2,3,4" id="Combined-Shape-10" node-id="75" stroke="none" target-height="31.899994" target-width="28.205612" target-x="249.74" target-y="246.85"></path><path d="M 180.94 156.72 C 195.04 157.21 207.68 173.46 205.23 191.79 C 204.34 199.70 201.50 207.26 196.96 213.79 L 177.96 246.79 L 161.31 213.39 C 156.90 206.37 154.47 198.29 154.27 190.00 C 153.51 171.57 166.85 156.23 180.94 156.72 Z M 178.58 224.28 C 174.96 224.12 171.46 222.92 168.50 220.82 L 176.19 235.60 C 176.85 236.85 178.38 237.34 179.65 236.72 C 180.06 236.47 180.40 236.13 180.65 235.72 L 189.56 221.02 C 186.34 223.24 182.49 224.38 178.58 224.28 Z M 180.85 159.28 C 168.26 158.84 156.32 174.28 156.90 189.16 C 157.52 205.79 166.70 220.72 178.79 221.16 C 190.88 221.60 200.29 207.16 202.87 190.79 C 205.00 176.47 193.55 159.76 180.85 159.32 Z" fill="url(#未命名的渐变_445)" fill-rule="nonzero" group-id="1,2,3,4,6" id="Shape" node-id="77" stroke="none" target-height="90.06999" target-width="51.258347" target-x="154.27" target-y="156.72"></path><path d="M 189.73 180.14 L 189.34 191.23 L 186.75 191.14 L 186.66 193.74 L 178.96 193.47 L 178.57 204.57 L 170.88 204.30 L 171.74 179.51 Z M 184.48 184.26 L 179.39 184.08 L 179.21 189.18 L 184.31 189.36 Z" fill="url(#未命名的渐变_446-2)" fill-opacity="0.76" fill-rule="nonzero" group-id="1,2,3,4,6,9" id="Combined-Shape-11" node-id="78" stroke-linecap="butt" stroke-opacity="0.76" stroke-width="1" target-height="25.060013" target-width="18.84999" target-x="170.88" target-y="179.51"></path><path d="M 173.14 236.90 L 178.14 240.57 L 183.35 237.25 C 181.51 241.39 180.41 247.16 180.14 254.75 L 179.44 274.84 C 179.39 276.28 178.19 277.40 176.75 277.35 C 175.31 277.30 174.19 276.10 174.24 274.66 C 174.45 265.86 174.68 259.16 174.85 254.57 C 175.27 247.48 174.68 241.65 173.14 236.90 Z" fill="#3c5cba" fill-rule="nonzero" group-id="1,2,3,4,6" id="Rectangle-4" node-id="79" stroke="none" target-height="40.450012" target-width="10.210007" target-x="173.14" target-y="236.9"></path><path d="M 174.64 245.55 L 181.44 245.79 L 180.30 278.27 L 173.50 278.03 L 174.64 245.55 Z" fill="url(#未命名的渐变_447-4)" fill-rule="nonzero" group-id="1,2,3,4,6" id="Rectangle-5" node-id="80" stroke="none" target-height="32.719986" target-width="7.9400024" target-x="173.5" target-y="245.55"></path><path d="M 173.74 245.52 L 182.34 245.82 L 182.28 247.52 L 173.68 247.22 L 173.74 245.52 Z" fill="#2982cc" fill-rule="nonzero" group-id="1,2,3,4,6" id="Rectangle-6" node-id="81" stroke="none" target-height="2" target-width="8.660004" target-x="173.68" target-y="245.52"></path><path d="M 172.66 276.30 L 181.26 276.60 L 181.20 278.30 L 172.61 278.00 L 172.66 276.30 Z" fill="#2982cc" fill-rule="nonzero" group-id="1,2,3,4,6" id="Rectangle-7" node-id="82" stroke="none" target-height="2" target-width="8.649994" target-x="172.61" target-y="276.3"></path><path d="M 257.37 247.24 C 257.37 247.24 237.29 278.11 235.53 278.60 C 233.77 279.09 233.00 276.45 220.36 274.00 C 207.72 271.55 188.19 267.32 185.67 266.28 C 184.51 265.80 183.89 260.84 183.37 259.68 C 183.08 258.90 182.41 258.33 181.60 258.16 L 180.60 263.16 C 180.60 263.16 175.11 262.63 174.60 262.08 C 174.09 261.53 174.41 259.28 173.31 259.40 C 172.21 259.52 170.48 262.11 170.63 263.50 C 170.78 264.89 171.47 264.82 170.72 266.31 C 169.97 267.80 170.19 267.97 170.72 268.92 C 171.09 269.77 171.16 270.72 170.91 271.62 C 170.78 272.34 171.67 273.15 172.38 273.17 C 173.09 273.19 183.18 271.64 184.75 272.27 C 186.32 272.90 233.75 294.87 238.44 293.27 C 243.13 291.67 275.57 255.27 275.57 255.27 C 281.67 245.89 265.52 238.64 257.37 247.24 Z" fill="url(#未命名的渐变_448-3)" fill-rule="nonzero" group-id="1,2,3,4,7" id="Path-12" node-id="84" stroke="none" target-height="49.895676" target-width="106.670715" target-x="170.23999" target-y="243.41173"></path><path d="M 251.07 255.14 C 254.64 255.57 258.11 256.60 261.34 258.19 C 267.06 260.90 267.86 264.74 267.86 264.74 L 275.43 256.40 C 282.95 247.57 266.94 235.88 258.43 245.02 Z" fill="url(#未命名的渐变_449-3)" fill-rule="nonzero" group-id="1,2,3,4,7" id="Path-13" node-id="85" stroke="none" target-height="23.030273" target-width="26.296661" target-x="251.07" target-y="241.70972"></path><path d="M 353.95 242.44 C 353.95 247.74 349.65 252.04 344.35 252.04 C 339.05 252.04 334.75 247.74 334.75 242.44 C 334.75 237.14 339.05 232.84 344.35 232.84 C 349.65 232.84 353.95 237.14 353.95 242.44 Z" fill="url(#未命名的渐变_450)" fill-rule="nonzero" group-id="1,2,3,4,8" id="Oval-2" node-id="87" stroke="none" target-height="19.199997" target-width="19.200012" target-x="334.75" target-y="232.84"></path><path d="M 342.67 233.27 C 343.03 234.23 343.20 235.25 343.16 236.27 C 343.02 240.58 339.59 244.06 335.28 244.27" fill="none" group-id="1,2,3,4,8" id="Path-14" node-id="88" stroke="#ffffff" stroke-linecap="round" stroke-width="0.6" target-height="11" target-width="7.880005" target-x="335.28" target-y="233.27"></path><path d="M 346.14 251.41 C 343.35 249.12 342.34 245.31 343.61 241.94 C 344.88 238.56 348.16 236.37 351.76 236.49" fill="none" group-id="1,2,3,4,8" id="Path-15" node-id="89" stroke="#ffffff" stroke-linecap="round" stroke-width="0.6" target-height="14.919998" target-width="8.681946" target-x="343.07806" target-y="236.49"></path><path d="M 353.80 241.07 C 353.90 241.63 353.94 242.20 353.94 242.77 C 353.85 245.31 352.75 247.71 350.88 249.44 C 349.02 251.18 346.54 252.09 344.00 252.00 C 342.92 251.95 341.84 251.75 340.82 251.39 C 343.44 251.14 345.94 250.15 348.03 248.54 C 350.40 246.52 352.32 244.03 353.68 241.23 Z" fill="#372732" fill-opacity="0.14" fill-rule="nonzero" group-id="1,2,3,4,8" id="Combined-Shape-12" node-id="90" stroke="none" target-height="10.929993" target-width="13.119995" target-x="340.82" target-y="241.07"></path></g></g></g></g></svg>