<?xml version="1.0" standalone="no"?><!DOCTYPE svg PUBLIC "-//W3C//DTD SVG 1.1//EN" "http://www.w3.org/Graphics/SVG/1.1/DTD/svg11.dtd"><svg height="550" legacy-metrics="false" node-id="1" sillyvg="true" template-height="550" template-width="550" version="1.1" viewBox="0 0 550 550" width="550" xmlns="http://www.w3.org/2000/svg" xmlns:xlink="http://www.w3.org/1999/xlink"><defs node-id="94"><linearGradient gradientUnits="userSpaceOnUse" id="未命名的渐变_363" node-id="5" x1="-2359.95" x2="-2163.69" y1="-1295.29" y2="-1144.39"><stop offset="0" stop-color="#ffed88"></stop><stop offset="1" stop-color="#ffb474"></stop></linearGradient><linearGradient gradientUnits="userSpaceOnUse" id="未命名的渐变_364" node-id="8" x1="-2230.26" x2="-2230.26" y1="-1089.57" y2="-975.71"><stop offset="0" stop-color="#c3e8ff"></stop><stop offset="1" stop-color="#5cb3fc"></stop></linearGradient><linearGradient gradientUnits="userSpaceOnUse" id="未命名的渐变_366" node-id="11" x1="-1594056" x2="-1594487.5" y1="-33119.4" y2="-33118.2"><stop offset="0" stop-color="#b7e0fe"></stop><stop offset="1" stop-color="#d0f1ff"></stop></linearGradient><linearGradient gradientUnits="userSpaceOnUse" id="未命名的渐变_366-2" node-id="14" x1="-1594056" x2="-1594487.5" y1="-5728" y2="-5728"><stop offset="0" stop-color="#b7e0fe"></stop><stop offset="1" stop-color="#d0f1ff"></stop></linearGradient><linearGradient gradientUnits="userSpaceOnUse" id="未命名的渐变_367" node-id="15" x1="-116551.15" x2="-116545.04" y1="-16409.42" y2="-16391.611"><stop offset="0" stop-color="#f7c0c8"></stop><stop offset="1" stop-color="#ed8d97"></stop></linearGradient><linearGradient gradientUnits="userSpaceOnUse" id="未命名的渐变_378" node-id="18" x1="-85221.695" x2="-85220.055" y1="-13553.784" y2="-13505.788"><stop offset="0" stop-color="#b1baf6"></stop><stop offset="1" stop-color="#79c6e9"></stop></linearGradient><linearGradient gradientUnits="userSpaceOnUse" id="未命名的渐变_383" node-id="21" x1="-75146.12" x2="-75135.01" y1="-14269.663" y2="-14214.263"><stop offset="0" stop-color="#85c0f8"></stop><stop offset="1" stop-color="#0058af"></stop></linearGradient><linearGradient gradientUnits="userSpaceOnUse" id="未命名的渐变_384" node-id="24" x1="-521898.75" x2="-521771.63" y1="-44149.43" y2="-44101.496"><stop offset="0" stop-color="#f3f9ff"></stop><stop offset="1" stop-color="#72c0f4"></stop></linearGradient><linearGradient gradientUnits="userSpaceOnUse" id="未命名的渐变_383-2" node-id="27" x1="-261995.17" x2="-261903.95" y1="-21891.465" y2="-21855.404"><stop offset="0" stop-color="#85c0f8"></stop><stop offset="1" stop-color="#0058af"></stop></linearGradient><linearGradient gradientUnits="userSpaceOnUse" id="未命名的渐变_382" node-id="28" x1="-92594.53" x2="-92589.445" y1="-6931.817" y2="-6928.833"><stop offset="0" stop-color="#6b3c5d"></stop><stop offset="1" stop-color="#261637"></stop></linearGradient><linearGradient gradientUnits="userSpaceOnUse" id="未命名的渐变_384-2" node-id="31" x1="-2285.34" x2="-2304.9" y1="-1248.23" y2="-1206.9"><stop offset="0" stop-color="#f3f9ff"></stop><stop offset="1" stop-color="#72c0f4"></stop></linearGradient><linearGradient gradientTransform="matrix(1 -0.02 -0.02 -1 2724.03 1648.42)" gradientUnits="userSpaceOnUse" id="未命名的渐变_384-3" node-id="32" x1="-2408.35" x2="-2446.18" y1="1350.19" y2="1312.77"><stop offset="0" stop-color="#f3f9ff"></stop><stop offset="1" stop-color="#72c0f4"></stop></linearGradient><linearGradient gradientTransform="matrix(43.45 0.35 0.35 63.37 159223.26 18713.79)" gradientUnits="userSpaceOnUse" id="未命名的渐变_383-3" node-id="33" x1="-3656.3" x2="-3655.74" y1="-270.69" y2="-268.87"><stop offset="0" stop-color="#85c0f8"></stop><stop offset="1" stop-color="#0058af"></stop></linearGradient><linearGradient gradientTransform="matrix(25.39 0.22 -0.44 12.32 93688.58 5722.21)" gradientUnits="userSpaceOnUse" id="未命名的渐变_382-2" node-id="34" x1="-3684.37" x2="-3684.18" y1="-367.34" y2="-367.1"><stop offset="0" stop-color="#6b3c5d"></stop><stop offset="1" stop-color="#261637"></stop></linearGradient><linearGradient gradientUnits="userSpaceOnUse" id="未命名的渐变_384-4" node-id="35" x1="-222580.13" x2="-222580.13" y1="-12501.791" y2="-12413.405"><stop offset="0" stop-color="#f3f9ff"></stop><stop offset="1" stop-color="#72c0f4"></stop></linearGradient><linearGradient gradientUnits="userSpaceOnUse" id="未命名的渐变_378-2" node-id="36" x1="-267239.2" x2="-267231.34" y1="-33957.176" y2="-33779.816"><stop offset="0" stop-color="#b1baf6"></stop><stop offset="1" stop-color="#79c6e9"></stop></linearGradient><linearGradient gradientUnits="userSpaceOnUse" id="未命名的渐变_379" node-id="37" x1="-61961.168" x2="-61960.1" y1="-11203.269" y2="-11143.695"><stop offset="0" stop-color="#b1baf6"></stop><stop offset="1" stop-color="#163d4f"></stop></linearGradient><linearGradient gradientTransform="matrix(31.06 19.77 19.77 47.03 105733.35 144388.24)" gradientUnits="userSpaceOnUse" id="未命名的渐变_384-5" node-id="40" x1="-1974.37" x2="-1974.37" y1="-2235.83" y2="-2232.46"><stop offset="0" stop-color="#f3f9ff"></stop><stop offset="1" stop-color="#72c0f4"></stop></linearGradient><linearGradient gradientUnits="userSpaceOnUse" id="未命名的渐变_384-6" node-id="41" x1="-2202.88" x2="-2214.25" y1="-1305.12" y2="-1212.48"><stop offset="0" stop-color="#f3f9ff"></stop><stop offset="1" stop-color="#72c0f4"></stop></linearGradient><linearGradient gradientTransform="matrix(14.68 2.59 -3.98 22.56 50104.82 20003)" gradientUnits="userSpaceOnUse" id="未命名的渐变_382-3" node-id="42" x1="-3518.11" x2="-3518.03" y1="-471.32" y2="-470.32"><stop offset="0" stop-color="#6b3c5d"></stop><stop offset="1" stop-color="#261637"></stop></linearGradient><linearGradient gradientUnits="userSpaceOnUse" id="未命名的渐变_383-4" node-id="43" x1="-259180.16" x2="-259089.9" y1="-30853.723" y2="-30745.129"><stop offset="0" stop-color="#85c0f8"></stop><stop offset="1" stop-color="#0058af"></stop></linearGradient><linearGradient gradientUnits="userSpaceOnUse" id="未命名的渐变_384-7" node-id="44" x1="-190349.39" x2="-190349.39" y1="-10036.366" y2="-9956.632"><stop offset="0" stop-color="#f3f9ff"></stop><stop offset="1" stop-color="#72c0f4"></stop></linearGradient></defs><g node-id="96"><g node-id="97"><path d="M 0.00 52.26 L 497.25 -0.01 L 549.52 497.24 L 52.27 549.51 Z" fill="none" group-id="1,2" id="Rectangle" node-id="48" stroke-linecap="butt" stroke-width="1" target-height="549.51416" target-width="549.51416" target-x="0.00248909" target-y="-0.006948471"></path><g node-id="98"><path d="M 403.54 303.55 C 413.04 276.45 417.77 255.35 417.74 240.25 C 417.74 158.79 351.70 92.75 270.24 92.75 C 188.78 92.75 122.74 158.79 122.74 240.25 C 122.74 255.65 127.67 277.15 137.54 304.75 Z" fill="url(#未命名的渐变_363)" fill-rule="nonzero" group-id="1,2,3" id="Oval" node-id="50" stroke="none" target-height="212" target-width="295" target-x="122.74" target-y="92.75"></path><path d="M 50.74 387.75 L 498.74 387.75 C 504.26 387.75 508.74 392.23 508.74 397.75 L 508.74 417.75 C 508.74 423.27 504.26 427.75 498.74 427.75 L 50.74 427.75 C 45.22 427.75 40.74 423.27 40.74 417.75 L 40.74 397.75 C 40.74 392.23 45.22 387.75 50.74 387.75 Z" fill="url(#未命名的渐变_364)" fill-rule="nonzero" group-id="1,2,3" id="Rectangle-2" node-id="51" stroke="none" target-height="40" target-width="468" target-x="40.74" target-y="387.75"></path><path d="M 57.74 317.75 L 492.74 317.75 C 502.13 317.75 509.74 325.36 509.74 334.75 L 509.74 360.75 C 509.74 370.14 502.13 377.75 492.74 377.75 L 57.74 377.75 C 48.35 377.75 40.74 370.14 40.74 360.75 L 40.74 334.75 C 40.74 325.36 48.35 317.75 57.74 317.75 Z" fill="url(#未命名的渐变_366)" fill-rule="nonzero" group-id="1,2,3" id="Rectangle-3" node-id="52" stroke="none" target-height="60" target-width="469" target-x="40.74" target-y="317.75"></path><path d="M 44.74 299.75 L 505.74 299.75 C 507.95 299.75 509.74 301.54 509.74 303.75 C 509.74 305.96 507.95 307.75 505.74 307.75 L 44.74 307.75 C 42.53 307.75 40.74 305.96 40.74 303.75 C 40.74 301.54 42.53 299.75 44.74 299.75 Z" fill="url(#未命名的渐变_366-2)" fill-rule="nonzero" group-id="1,2,3" id="Rectangle-4" node-id="53" stroke="none" target-height="8" target-width="469" target-x="40.74" target-y="299.75"></path><path d="M 312.00 392.27 L 311.82 392.74 L 311.03 393.38 L 309.09 394.28 L 305.25 395.52 L 297.70 397.39 L 285.92 399.76 L 272.80 402.05 L 256.29 404.62 L 238.72 407.11 L 218.59 409.72 L 197.71 412.22 L 175.10 414.70 L 152.46 416.98 L 131.52 418.87 L 111.29 420.50 L 93.59 421.72 L 76.90 422.64 L 63.59 423.13 L 51.58 423.26 L 43.81 423.00 L 39.79 422.59 L 37.70 422.11 L 36.80 421.65 L 36.52 421.22 L 36.70 420.76 L 37.50 420.12 L 39.44 419.21 L 43.28 417.97 L 50.83 416.10 L 62.60 413.73 L 75.72 411.45 L 92.24 408.88 L 109.80 406.39 L 129.93 403.77 L 150.81 401.28 L 173.43 398.79 L 196.06 396.52 L 217.01 394.62 L 237.24 393.00 L 254.94 391.78 L 271.63 390.86 L 284.93 390.36 L 296.95 390.24 L 304.72 390.49 L 308.73 390.91 L 310.82 391.39 L 311.73 391.85 L 312.00 392.27 Z" fill="#000000" fill-opacity="0.09" fill-rule="nonzero" group-id="1,2,3" id="Oval-2" node-id="54" stroke-linecap="butt" stroke-width="1" target-height="33.023926" target-width="275.4826" target-x="36.521107" target-y="390.23572"></path><g node-id="99"><g node-id="100"><path d="M 209.74 233.35 C 209.74 233.35 213.94 230.95 214.94 218.05 C 215.46 211.44 219.46 205.61 225.44 202.75 C 231.04 200.15 243.14 207.15 241.74 214.75 C 240.14 223.95 231.84 234.75 226.64 233.85 C 223.54 233.35 222.44 230.05 222.44 230.05 L 219.74 237.85 Z" fill="url(#未命名的渐变_367)" fill-rule="nonzero" group-id="1,2,3,4,5" id="Path" node-id="57" stroke="none" target-height="35.650055" target-width="32.068985" target-x="209.74" target-y="202.19995"></path><path d="M 220.64 221.35 C 219.14 222.86 217.54 224.27 215.84 225.55 C 214.04 226.75 211.04 225.75 211.04 225.75 L 212.74 224.35 L 209.74 223.35 L 212.44 222.55 L 210.54 220.85 C 210.54 220.85 212.84 220.25 213.54 219.25 C 214.07 218.45 214.53 217.62 214.94 216.75 L 220.34 218.25 Z" fill="#372732" fill-rule="nonzero" group-id="1,2,3,4,5" id="Path-2" node-id="58" stroke="none" target-height="9.385178" target-width="10.899994" target-x="209.74" target-y="216.75"></path><path d="M 219.54 206.05 C 221.74 204.05 225.44 200.45 232.14 202.15 C 233.96 202.69 235.65 203.57 237.14 204.75 L 227.34 218.15 C 226.84 217.75 224.74 229.95 223.04 230.45 C 221.14 230.95 219.64 219.85 219.04 219.65 C 217.33 219.07 215.54 218.76 213.74 218.75 C 213.84 218.85 213.84 211.15 219.54 206.05 Z" fill="url(#未命名的渐变_378)" fill-rule="nonzero" group-id="1,2,3,4,5" id="Path-3" node-id="59" stroke="none" target-height="28.728073" target-width="23.399994" target-x="213.74" target-y="201.72192"></path><path d="M 237.24 204.75 L 227.44 218.15 C 226.94 217.75 224.84 229.95 223.14 230.45 C 222.84 230.55 222.54 230.35 222.24 229.95 C 222.18 225.26 223.28 220.62 225.44 216.45 C 227.91 211.54 231.30 207.16 235.44 203.55 C 236.54 204.25 237.24 204.75 237.24 204.75 Z" fill="#372732" fill-opacity="0.15" fill-rule="nonzero" group-id="1,2,3,4,5" id="Combined-Shape" node-id="60" stroke="none" target-height="26.899994" target-width="15" target-x="222.24" target-y="203.55"></path><path d="M 228.24 215.25 C 225.54 219.75 221.54 229.35 222.84 231.75 C 223.71 233.17 225.06 234.23 226.64 234.75 C 229.04 235.15 233.14 234.65 238.94 225.05 C 244.74 215.45 244.54 208.85 237.64 204.55 C 235.74 203.35 230.94 210.75 228.24 215.25 Z" fill="url(#未命名的渐变_383)" fill-rule="nonzero" group-id="1,2,3,4,5" id="Path-4" node-id="61" stroke="none" target-height="30.38124" target-width="20.459045" target-x="222.59346" target-y="204.4606"></path><path d="M 237.64 227.25 L 230.74 223.55 C 229.93 223.10 229.58 222.11 229.94 221.25 L 232.74 215.05 C 233.09 214.34 233.86 213.93 234.64 214.05 C 235.94 214.25 237.54 214.55 239.54 215.05 C 240.67 215.28 241.77 215.62 242.84 216.05 C 242.11 219.30 240.78 222.38 238.94 225.15 C 238.54 225.85 238.00 226.55 237.64 227.25 Z" fill="#255c78" fill-rule="nonzero" group-id="1,2,3,4,5" id="Path-5" node-id="62" stroke="none" target-height="13.199997" target-width="13.039612" target-x="229.80038" target-y="214.05"></path><path d="M 232.34 216.15 L 232.84 215.05 C 233.19 214.34 233.96 213.93 234.74 214.05 C 236.04 214.25 237.64 214.55 239.64 215.05 C 240.77 215.28 241.87 215.62 242.94 216.05 C 242.74 217.05 243.34 218.65 242.94 219.75 C 242.34 219.45 240.74 218.65 240.04 218.35 C 237.54 217.39 234.97 216.66 232.34 216.15 Z" fill="#5bb7e2" fill-rule="nonzero" group-id="1,2,3,4,5" id="Path-6" node-id="63" stroke="none" target-height="5.699997" target-width="10.739868" target-x="232.34" target-y="214.05"></path></g><path d="M 352.84 272.25 L 517.04 238.65 L 517.14 239.65 L 353.74 275.15 L 352.84 272.25 Z" fill="#372732" fill-rule="nonzero" group-id="1,2,3,4" id="Path-7" node-id="64" stroke="none" target-height="36.5" target-width="164.30002" target-x="352.84" target-y="238.65"></path><path d="M 518.54 239.05 C 518.54 239.82 517.91 240.45 517.14 240.45 C 516.37 240.45 515.74 239.82 515.74 239.05 C 515.74 238.28 516.37 237.65 517.14 237.65 C 517.91 237.65 518.54 238.28 518.54 239.05 Z" fill="#372732" fill-rule="nonzero" group-id="1,2,3,4" id="Oval-3" node-id="65" stroke="none" target-height="2.800003" target-width="2.7999878" target-x="515.74" target-y="237.65"></path><path d="M 160.14 303.65 C 160.14 303.65 119.74 342.35 114.44 345.95 C 109.14 349.55 99.94 350.65 91.94 356.65 C 75.74 368.75 33.94 397.75 38.34 399.45 C 42.94 401.15 81.84 380.15 100.74 370.65 C 115.44 363.35 112.44 363.75 118.04 360.85 C 120.94 359.35 136.74 351.45 151.44 342.75 C 165.04 334.65 177.74 325.85 180.54 324.25 C 186.44 321.05 195.84 307.15 188.64 302.35 C 171.54 290.85 160.14 303.65 160.14 303.65 Z" fill="url(#未命名的渐变_384)" fill-rule="nonzero" group-id="1,2,3,4" id="Path-8" node-id="66" stroke="none" target-height="101.96869" target-width="153.14954" target-x="38.037403" target-y="297.56894"></path><path d="M 114.74 362.75 L 114.74 362.75 C 112.74 364.15 111.14 365.45 100.74 370.65 C 81.84 380.05 42.94 401.15 38.34 399.45 C 33.94 397.75 75.74 368.75 92.04 356.65 C 95.48 354.19 99.25 352.24 103.24 350.85 C 106.20 355.58 110.11 359.63 114.74 362.75 Z" fill="url(#未命名的渐变_383-2)" fill-rule="nonzero" group-id="1,2,3,4" id="Combined-Shape-2" node-id="67" stroke="none" target-height="48.68698" target-width="76.70261" target-x="38.03739" target-y="350.85"></path><path d="M 47.24 396.05 C 46.94 398.85 53.44 401.65 55.94 404.15 C 56.41 404.86 56.62 405.71 56.54 406.55 C 56.64 407.55 50.94 407.75 44.84 407.85 C 37.64 407.95 29.74 407.75 29.74 406.55 C 29.74 405.15 32.04 401.85 34.44 399.75 C 37.34 397.15 40.54 394.85 40.54 394.85 C 40.54 394.85 47.24 395.25 47.24 396.05 Z" fill="url(#未命名的渐变_382)" fill-rule="nonzero" group-id="1,2,3,4" id="Path-9" node-id="68" stroke="none" target-height="13" target-width="26.800001" target-x="29.74" target-y="394.85"></path><path d="M 183.34 322.15 C 182.49 322.95 181.55 323.66 180.54 324.25 C 177.64 325.85 165.24 334.55 151.44 342.75 C 136.84 351.35 120.94 359.35 118.04 360.85 C 114.14 362.85 114.44 363.25 110.04 365.75 L 167.94 322.15 Z" fill="#372732" fill-opacity="0.15" fill-rule="nonzero" group-id="1,2,3,4" id="Combined-Shape-3" node-id="69" stroke="none" target-height="43.600006" target-width="73.299995" target-x="110.04" target-y="322.15"></path><path d="M 164.34 299.35 C 153.54 303.85 162.24 324.25 175.14 327.55 C 190.34 331.45 237.64 341.25 244.14 342.65 C 250.64 344.05 253.24 331.45 247.84 328.35 C 242.44 325.25 184.94 290.75 164.34 299.35 Z" fill="url(#未命名的渐变_384-2)" fill-rule="nonzero" group-id="1,2,3,4" id="Path-10" node-id="70" stroke="none" target-height="44.70215" target-width="91.29025" target-x="159.46594" target-y="298.00214"></path><path d="M 176.44 322.15 C 179.54 323.35 202.84 330.15 246.34 342.55 C 245.65 342.75 244.93 342.75 244.24 342.55 C 237.74 341.15 190.44 331.45 175.24 327.45 C 172.24 326.60 169.49 325.02 167.24 322.85 L 167.24 322.85 C 170.02 321.18 173.43 320.92 176.44 322.15 Z" fill="#372732" fill-opacity="0.15" fill-rule="nonzero" group-id="1,2,3,4" id="Combined-Shape-4" node-id="71" stroke="none" target-height="21.290985" target-width="79.09999" target-x="167.24" target-y="321.40985"></path><path d="M 245.13 330.66 C 243.00 334.60 245.90 346.45 249.44 354.19 C 252.98 361.93 285.64 399.56 286.15 400.35 C 287.79 402.62 291.98 401.75 291.15 398.67 C 290.79 397.07 252.88 316.32 245.13 330.66 Z" fill="url(#未命名的渐变_384-3)" fill-rule="nonzero" group-id="1,2,3,4,6" id="Path-11" node-id="73" stroke="none" target-height="72.64044" target-width="46.82985" target-x="244.40703" target-y="328.9673"></path><path d="M 258.47 338.73 C 272.30 357.73 290.90 397.57 291.22 398.66 C 292.08 401.75 287.79 402.66 286.22 400.35 C 285.61 399.56 253.04 361.92 249.41 354.19 C 248.44 352.09 247.60 349.93 246.90 347.73 C 251.00 345.06 254.86 342.05 258.44 338.73 Z" fill="url(#未命名的渐变_383-3)" fill-rule="nonzero" group-id="1,2,3,4,6" id="Combined-Shape-5" node-id="74" stroke="none" target-height="62.895172" target-width="44.412262" target-x="246.9" target-y="338.73"></path><path d="M 284.70 397.48 C 284.70 397.48 289.85 394.59 291.37 395.76 C 292.89 396.93 295.95 400.18 301.97 401.28 C 307.99 402.38 310.97 407.72 308.88 407.76 C 306.79 407.80 285.78 407.76 284.78 407.76 C 283.58 407.70 284.70 397.48 284.70 397.48 Z" fill="url(#未命名的渐变_382-2)" fill-rule="nonzero" group-id="1,2,3,4,6" id="Path-12" node-id="75" stroke="none" target-height="12.2925415" target-width="25.28543" target-x="284.26126" target-y="395.48477"></path><path d="M 191.54 240.05 C 191.54 240.05 142.94 253.45 136.94 259.95 C 131.64 265.55 135.14 266.25 143.14 265.75 C 149.24 265.45 181.04 262.95 181.04 262.95 C 202.14 260.35 204.34 236.65 191.54 240.05 Z" fill="url(#未命名的渐变_384-4)" fill-rule="nonzero" group-id="1,2,3,4" id="Path-13" node-id="76" stroke="none" target-height="26.13623" target-width="65.03635" target-x="134.41406" target-y="239.74454"></path><path d="M 187.54 245.15 L 183.84 262.35 C 182.88 262.57 181.92 262.74 180.94 262.85 L 153.24 265.05 L 145.84 261.55 C 153.04 261.05 158.14 260.15 161.04 258.85 C 163.94 257.55 172.74 253.05 187.54 245.15 Z" fill="#372732" fill-opacity="0.15" fill-rule="nonzero" group-id="1,2,3,4" id="Combined-Shape-6" node-id="77" stroke="none" target-height="19.899994" target-width="41.699997" target-x="145.84" target-y="245.15"></path><path d="M 188.84 240.15 C 179.54 243.95 175.94 251.45 172.94 265.55 C 169.94 279.65 167.94 291.25 164.44 296.45 C 162.73 298.82 161.16 301.29 159.74 303.85 C 164.54 307.55 170.94 309.35 178.84 309.45 C 190.84 309.55 203.74 306.25 203.74 306.25 C 203.74 306.25 202.74 297.35 209.74 291.65 C 216.74 285.95 235.74 269.25 237.74 258.85 C 239.74 248.45 226.84 244.25 223.14 242.35 C 221.05 241.40 219.98 239.05 220.64 236.85 C 217.04 234.77 213.17 233.19 209.14 232.15 C 208.10 233.92 206.47 235.26 204.54 235.95 C 201.44 236.75 192.74 238.55 188.84 240.15 Z" fill="url(#未命名的渐变_378-2)" fill-rule="nonzero" group-id="1,2,3,4" id="Path-14" node-id="78" stroke="none" target-height="77.30002" target-width="78.18698" target-x="159.74" target-y="232.15"></path><path d="M 223.14 255.05 L 237.94 256.95 C 237.92 257.59 237.85 258.22 237.74 258.85 C 236.64 264.35 230.74 271.75 224.34 278.25 C 222.55 275.67 221.23 272.79 220.44 269.75 C 219.64 265.85 220.54 260.95 223.14 255.05 Z" fill="url(#未命名的渐变_379)" fill-rule="nonzero" group-id="1,2,3,4" id="Combined-Shape-7" node-id="79" stroke="none" target-height="23.199997" target-width="17.782043" target-x="220.15796" target-y="255.05"></path><path d="M 241.13 249.61 C 252.98 270.61 261.23 283.70 264.18 289.68 C 266.87 295.10 259.75 301.68 255.29 297.24 C 250.83 292.80 233.34 270.79 224.70 256.72 C 220.08 249.00 236.09 240.71 241.13 249.61 Z" fill="url(#未命名的渐变_384-5)" fill-rule="nonzero" group-id="1,2,3,4,7" id="Path-15" node-id="81" stroke="none" target-height="52.918243" target-width="40.902924" target-x="223.86899" target-y="245.77579"></path><path d="M 255.64 295.55 C 255.84 299.85 263.34 302.55 275.14 298.85 C 286.94 295.15 332.54 282.25 334.54 280.15 C 336.54 278.05 335.34 276.45 332.14 277.25 C 328.94 278.05 295.24 281.85 271.34 284.45 C 263.34 285.35 255.54 293.00 255.64 295.55 Z" fill="url(#未命名的渐变_384-6)" fill-rule="nonzero" group-id="1,2,3,4" id="Path-16" node-id="82" stroke="none" target-height="23.546661" target-width="79.8813" target-x="255.64" target-y="277.0478"></path><path d="M 353.94 272.45 L 325.54 278.95 C 324.73 279.13 324.21 279.93 324.37 280.74 C 324.53 281.56 325.32 282.10 326.14 281.95 L 354.54 275.45 C 354.94 275.38 355.30 275.15 355.53 274.81 C 355.76 274.47 355.83 274.05 355.74 273.65 C 355.70 273.23 355.47 272.86 355.12 272.62 C 354.78 272.39 354.34 272.33 353.94 272.45 Z" fill="#372732" fill-rule="nonzero" group-id="1,2,3,4" id="Path-17" node-id="83" stroke="none" target-height="9.545441" target-width="31.386963" target-x="324.36914" target-y="272.40457"></path><path d="M 324.34 280.85 C 324.70 282.56 325.97 283.94 327.64 284.45 C 328.64 284.85 331.74 281.95 334.44 281.15 C 337.14 280.35 343.84 282.65 345.54 283.75 C 347.24 284.85 349.74 284.25 349.04 283.05 C 348.34 281.85 340.24 274.05 340.24 274.05 C 341.36 273.56 342.25 272.67 342.74 271.55 C 343.74 269.55 343.94 267.25 342.44 268.45 C 340.61 269.67 338.63 270.65 336.54 271.35 C 334.64 272.15 333.44 274.85 332.74 276.05 C 332.04 277.25 325.04 277.15 325.04 277.15 C 324.14 278.16 323.87 279.58 324.34 280.85 Z" fill="#255c78" fill-rule="nonzero" group-id="1,2,3,4" id="Path-18" node-id="84" stroke="none" target-height="16.333008" target-width="25.015106" target-x="324.1254" target-y="268.117"></path><path d="M 343.44 264.65 C 343.24 265.15 342.64 268.85 344.74 276.75 C 346.74 284.45 350.14 289.85 351.44 288.55 C 354.04 286.05 357.44 278.95 355.74 273.65 C 353.34 265.85 343.94 263.55 343.44 264.65 Z" fill="url(#未命名的渐变_382-3)" fill-rule="nonzero" group-id="1,2,3,4" id="Path-19" node-id="85" stroke="none" target-height="24.317596" target-width="12.964142" target-x="343.2275" target-y="264.41867"></path><path d="M 237.94 246.05 C 229.74 247.95 224.84 252.55 223.14 259.85 C 221.44 267.15 222.84 272.35 227.24 275.55 C 213.64 288.65 206.44 296.55 205.74 299.35 C 205.04 302.15 205.04 304.25 205.74 305.75 C 190.74 306.35 179.84 305.55 173.14 303.35 C 166.44 301.15 162.74 299.85 162.14 299.35 C 168.94 280.85 172.64 268.35 173.14 261.65 C 173.94 251.65 180.54 243.75 186.44 241.25 C 192.28 238.98 198.30 237.21 204.44 235.95 L 220.54 239.85 L 225.44 243.45 Z" fill="url(#未命名的渐变_383-4)" fill-rule="nonzero" group-id="1,2,3,4" id="Path-194" node-id="86" stroke="none" target-height="69.99159" target-width="75.8" target-x="162.14" target-y="235.95"></path><path d="M 135.42 268.00 C 130.22 256.60 144.92 263.20 155.02 262.30 C 161.82 261.70 177.62 276.00 183.62 279.40 C 189.32 282.70 189.72 284.90 185.32 284.80 C 180.92 284.70 138.82 275.26 135.42 268.00 Z" fill="url(#未命名的渐变_384-7)" fill-rule="nonzero" group-id="1,2,3,4,8" id="Path-20" node-id="88" stroke="none" target-height="23.589172" target-width="53.927704" target-x="134.3298" target-y="261.21082"></path><path d="M 142.32 273.00 L 185.82 280.80 C 189.42 283.30 189.12 284.90 185.42 284.80 C 181.92 284.66 155.22 279.00 142.32 273.00 Z" fill="#372732" fill-opacity="0.15" fill-rule="nonzero" group-id="1,2,3,4,8" id="Combined-Shape-8" node-id="89" stroke="none" target-height="11.799988" target-width="46.03749" target-x="142.32" target-y="273"></path><path d="M 179.32 279.76 C 178.64 281.67 178.68 283.77 179.42 285.66 L 188.32 285.76 C 189.87 287.07 191.51 288.27 193.22 289.36 C 195.92 291.06 195.92 290.16 197.92 288.86 C 199.92 287.56 202.22 285.26 201.92 283.66 C 201.62 282.06 198.92 278.76 197.12 279.16 C 195.32 279.56 189.42 281.46 189.42 281.46 L 182.52 276.86 C 182.52 276.86 180.52 277.00 179.32 279.76 Z" fill="#255c78" fill-rule="nonzero" group-id="1,2,3,4,8" id="Path-21" node-id="90" stroke="none" target-height="13.414764" target-width="23.040833" target-x="178.87917" target-y="276.86"></path><path d="M 191.42 280.76 C 193.82 279.26 195.62 278.76 196.92 279.06 C 198.82 279.66 198.72 283.66 198.62 285.16 C 198.52 286.66 196.92 288.16 196.02 286.06 C 195.12 283.96 194.12 281.76 194.12 281.76 Z" fill="#372732" fill-opacity="0.15" fill-rule="nonzero" group-id="1,2,3,4,8" id="Path-22" node-id="91" stroke="none" target-height="8.09613" target-width="7.225937" target-x="191.42" target-y="278.9972"></path><path d="M 191.42 280.76 C 191.42 280.76 195.32 277.66 197.02 278.16 C 198.72 278.66 198.62 282.06 198.42 283.36 C 198.22 284.66 196.92 285.86 196.12 284.16 C 195.32 282.46 194.52 280.56 194.52 280.56 Z" fill="#255c78" fill-rule="nonzero" group-id="1,2,3,4,8" id="Path-23" node-id="92" stroke="none" target-height="6.8532104" target-width="7.103714" target-x="191.42" target-y="278.16"></path></g></g></g></g></svg>