<?xml version="1.0" standalone="no"?><!DOCTYPE svg PUBLIC "-//W3C//DTD SVG 1.1//EN" "http://www.w3.org/Graphics/SVG/1.1/DTD/svg11.dtd"><svg height="500" legacy-metrics="false" node-id="1" sillyvg="true" template-height="500" template-width="500" version="1.1" viewBox="0 0 500 500" width="500" xmlns="http://www.w3.org/2000/svg" xmlns:xlink="http://www.w3.org/1999/xlink"><defs node-id="110"><linearGradient gradientUnits="userSpaceOnUse" id="未命名的渐变_14" node-id="5" x1="61302.07" x2="60913.92" y1="-65916.945" y2="-65905.32"><stop offset="0" stop-color="#b7e0fe"></stop><stop offset="1" stop-color="#d0f1ff"></stop></linearGradient><linearGradient gradientUnits="userSpaceOnUse" id="未命名的渐变_15" node-id="8" x1="60660.156" x2="60334.117" y1="-70946.84" y2="-70931.805"><stop offset="0" stop-color="#d8eeff"></stop><stop offset="1" stop-color="#e4f7ff"></stop></linearGradient><linearGradient gradientUnits="userSpaceOnUse" id="未命名的渐变_16" node-id="11" x1="3901.65" x2="3949.38" y1="-22012.04" y2="-21997.24"><stop offset="0" stop-color="#ffe274"></stop><stop offset="1" stop-color="#ffb874"></stop></linearGradient><linearGradient gradientUnits="userSpaceOnUse" id="未命名的渐变_17" node-id="14" x1="60114.1" x2="60251.12" y1="-81823.5" y2="-81816.25"><stop offset="0" stop-color="#fff2ac"></stop><stop offset="1" stop-color="#ffe274"></stop></linearGradient><linearGradient gradientTransform="matrix(24.56 0.98 0.98 30.58 13935.15 7691.26)" gradientUnits="userSpaceOnUse" id="未命名的渐变_25" node-id="17" x1="-542.45" x2="-542.2" y1="-225.31" y2="-224.31"><stop offset="0" stop-color="#ff8efe"></stop><stop offset="1" stop-color="#f35f83"></stop></linearGradient><linearGradient gradientUnits="userSpaceOnUse" id="未命名的渐变_26" node-id="20" x1="1831.1337" x2="1729.7272" y1="-24154.111" y2="-24167.705"><stop offset="0" stop-color="#fb8460"></stop><stop offset="1" stop-color="#ffc4a7"></stop></linearGradient><linearGradient gradientUnits="userSpaceOnUse" id="未命名的渐变_26-2" node-id="23" x1="3432.8018" x2="3416.7258" y1="-21212.72" y2="-21248.66"><stop offset="0" stop-color="#fb8460"></stop><stop offset="1" stop-color="#ffc4a7"></stop></linearGradient><linearGradient gradientUnits="userSpaceOnUse" id="未命名的渐变_25-2" node-id="24" x1="-412.23212" x2="-405.55978" y1="-19130.076" y2="-19092.355"><stop offset="0" stop-color="#ff8efe"></stop><stop offset="1" stop-color="#f35f83"></stop></linearGradient><linearGradient gradientUnits="userSpaceOnUse" id="未命名的渐变_26-3" node-id="25" x1="1601.404" x2="1565.3999" y1="-21510.191" y2="-21536.785"><stop offset="0" stop-color="#fb8460"></stop><stop offset="1" stop-color="#ffc4a7"></stop></linearGradient><linearGradient gradientUnits="userSpaceOnUse" id="未命名的渐变_26-4" node-id="26" x1="-236.222" x2="-255.96202" y1="-23363.705" y2="-23403.57"><stop offset="0" stop-color="#fb8460"></stop><stop offset="1" stop-color="#ffc4a7"></stop></linearGradient><linearGradient gradientUnits="userSpaceOnUse" id="未命名的渐变_25-3" node-id="27" x1="-906.92163" x2="-903.5676" y1="-12353.754" y2="-12330.544"><stop offset="0" stop-color="#ff8efe"></stop><stop offset="1" stop-color="#f35f83"></stop></linearGradient><linearGradient gradientUnits="userSpaceOnUse" id="未命名的渐变_25-4" node-id="28" x1="533.5182" x2="547.6824" y1="-30680.436" y2="-30617.986"><stop offset="0" stop-color="#ff8efe"></stop><stop offset="1" stop-color="#f35f83"></stop></linearGradient><linearGradient gradientUnits="userSpaceOnUse" id="未命名的渐变_26-5" node-id="29" x1="2940.1099" x2="2921.1702" y1="-28500.693" y2="-28548.768"><stop offset="0" stop-color="#fb8460"></stop><stop offset="1" stop-color="#ffc4a7"></stop></linearGradient><linearGradient gradientUnits="userSpaceOnUse" id="未命名的渐变_38" node-id="30" x1="-246.148" x2="-239.8704" y1="-11351.791" y2="-11343.147"><stop offset="0" stop-color="#6b3c5d"></stop><stop offset="1" stop-color="#372732"></stop></linearGradient><linearGradient gradientUnits="userSpaceOnUse" id="未命名的渐变_30" node-id="33" x1="-1290.9888" x2="-1290.9888" y1="-4942.0957" y2="-4932.7007"><stop offset="0" stop-color="#fff0b0"></stop><stop offset="1" stop-color="#feaf4f"></stop></linearGradient><linearGradient gradientUnits="userSpaceOnUse" id="未命名的渐变_38-2" node-id="36" x1="-542.15344" x2="-536.99744" y1="-12317.653" y2="-12298.91"><stop offset="0" stop-color="#6b3c5d"></stop><stop offset="1" stop-color="#372732"></stop></linearGradient><linearGradient gradientUnits="userSpaceOnUse" id="未命名的渐变_30-2" node-id="37" x1="-507.1464" x2="-507.1464" y1="-4054.269" y2="-4047.2512"><stop offset="0" stop-color="#fff0b0"></stop><stop offset="1" stop-color="#feaf4f"></stop></linearGradient><linearGradient gradientUnits="userSpaceOnUse" id="未命名的渐变_36" node-id="38" x1="-3526.902" x2="-3526.902" y1="-4742.246" y2="-4722.7607"><stop offset="0" stop-color="#fac798"></stop><stop offset="1" stop-color="#f35f83"></stop></linearGradient><linearGradient gradientUnits="userSpaceOnUse" id="未命名的渐变_36-2" node-id="41" x1="-2057.1252" x2="-2057.1252" y1="-4742.246" y2="-4722.865"><stop offset="0" stop-color="#fac798"></stop><stop offset="1" stop-color="#f35f83"></stop></linearGradient><linearGradient gradientUnits="userSpaceOnUse" id="未命名的渐变_36-3" node-id="42" x1="-2974.2917" x2="-2974.2917" y1="-26227.46" y2="-26077.04"><stop offset="0" stop-color="#fac798"></stop><stop offset="1" stop-color="#f35f83"></stop></linearGradient><linearGradient gradientUnits="userSpaceOnUse" id="未命名的渐变_38-3" node-id="43" x1="-3428.46" x2="-3428.0103" y1="-7028.46" y2="-7010.46"><stop offset="0" stop-color="#6b3c5d"></stop><stop offset="1" stop-color="#372732"></stop></linearGradient><linearGradient gradientUnits="userSpaceOnUse" id="未命名的渐变_38-4" node-id="44" x1="-3347.3782" x2="-3346.948" y1="-6822.994" y2="-6805.664"><stop offset="0" stop-color="#6b3c5d"></stop><stop offset="1" stop-color="#372732"></stop></linearGradient><linearGradient gradientUnits="userSpaceOnUse" id="未命名的渐变_36-4" node-id="45" x1="-1733.7585" x2="-1733.7585" y1="-26227.46" y2="-26077.04"><stop offset="0" stop-color="#fac798"></stop><stop offset="1" stop-color="#f35f83"></stop></linearGradient><linearGradient gradientUnits="userSpaceOnUse" id="未命名的渐变_38-5" node-id="46" x1="-1784.16" x2="-1783.71" y1="-7028.46" y2="-7010.46"><stop offset="0" stop-color="#6b3c5d"></stop><stop offset="1" stop-color="#372732"></stop></linearGradient><linearGradient gradientUnits="userSpaceOnUse" id="未命名的渐变_38-6" node-id="47" x1="-1776.1581" x2="-1775.728" y1="-6822.994" y2="-6805.664"><stop offset="0" stop-color="#6b3c5d"></stop><stop offset="1" stop-color="#372732"></stop></linearGradient></defs><g node-id="112"><g node-id="113"><path d="M 0.00 0.00 L 500.00 0.00 L 500.00 500.00 L 0.00 500.00 Z" fill="none" group-id="1,2" id="Rectangle" node-id="51" stroke="none" target-height="500" target-width="500" target-x="0" target-y="0"></path><g node-id="114"><g node-id="115"><path d="M 459.25 304.15 L 459.25 304.15 C 294.55 279.65 164.15 307.95 56.85 387.25 L 56.85 387.25 C 54.96 388.65 52.58 389.24 50.25 388.88 C 47.93 388.53 45.84 387.26 44.45 385.35 C 43.34 383.81 42.74 381.95 42.75 380.05 L 42.75 322.65 C 42.79 314.75 47.74 307.72 55.15 305.00 L 55.15 305.00 C 114.55 283.40 173.98 272.63 233.45 272.70 C 310.55 272.80 382.15 278.90 459.15 292.80 L 459.25 292.80 C 462.41 293.40 464.68 296.18 464.65 299.40 L 464.65 299.60 C 464.64 300.85 464.13 302.05 463.22 302.92 C 462.32 303.78 461.10 304.25 459.85 304.20 Z" fill="url(#未命名的渐变_14)" fill-rule="nonzero" group-id="1,2,3,4" id="Path" node-id="54" stroke="none" target-height="116.27701" target-width="421.9" target-x="42.75" target-y="272.7"></path><path d="M 454.05 173.65 C 440.55 175.35 451.65 173.95 450.35 174.05 C 292.05 192.15 161.38 160.47 58.35 79.00 L 58.35 79.00 C 56.74 77.71 54.68 77.11 52.63 77.36 C 50.58 77.60 48.71 78.66 47.45 80.30 C 46.36 81.67 45.76 83.36 45.75 85.10 L 45.75 143.70 C 45.73 154.16 52.12 163.56 61.85 167.40 L 61.85 167.40 C 126.55 193.00 182.75 202.80 247.45 202.70 C 315.96 202.54 384.35 197.04 452.00 186.25 C 452.80 186.15 442.50 187.85 454.40 185.85 C 466.30 183.85 467.55 172.00 454.05 173.65 Z" fill="url(#未命名的渐变_15)" fill-rule="nonzero" group-id="1,2,3,4" id="Path-2" node-id="55" stroke="none" target-height="125.37028" target-width="417.99997" target-x="45.75" target-y="77.32972"></path><path d="M 417.95 84.55 C 417.95 94.77 409.67 103.05 399.45 103.05 C 389.23 103.05 380.95 94.77 380.95 84.55 C 380.95 74.33 389.23 66.05 399.45 66.05 C 409.67 66.05 417.95 74.33 417.95 84.55 Z" fill="url(#未命名的渐变_16)" fill-rule="nonzero" group-id="1,2,3,4" id="Oval" node-id="56" stroke="none" target-height="37" target-width="37" target-x="380.95" target-y="66.05"></path><path d="M 470.00 348.05 C 480.60 360.25 477.10 373.05 456.20 382.95 C 439.40 390.98 400.67 415.45 340.00 456.35 C 323.47 467.53 303.96 473.49 284.00 473.45 L 80.55 473.45 C 72.44 473.46 65.13 468.57 62.04 461.07 C 58.95 453.58 60.69 444.96 66.45 439.25 C 153.85 352.58 273.18 316.75 424.45 331.75 C 434.35 332.75 459.45 335.75 470.00 348.05 Z" fill="url(#未命名的渐变_17)" fill-rule="nonzero" group-id="1,2,3,4" id="Path-3" node-id="57" stroke="none" target-height="144.99097" target-width="415.24402" target-x="60.533676" target-y="328.45905"></path><path d="M 400.95 395.55 C 400.95 400.24 357.07 404.05 302.95 404.05 C 248.83 404.05 204.95 400.24 204.95 395.55 C 204.95 390.86 248.83 387.05 302.95 387.05 C 357.07 387.05 400.95 390.86 400.95 395.55 Z" fill="#000000" fill-opacity="0.09" fill-rule="nonzero" group-id="1,2,3,4" id="Oval-2" node-id="58" stroke="none" target-height="17" target-width="196.00002" target-x="204.95" target-y="387.05"></path><path d="M 463.65 404.35 C 447.35 407.75 397.95 440.85 383.15 455.55 C 368.35 470.25 434.75 462.45 452.75 451.05 C 470.75 439.65 480.00 400.85 463.65 404.35 Z" fill="#ffe274" fill-rule="nonzero" group-id="1,2,3,4" id="Path-4" node-id="59" stroke="none" target-height="59.397003" target-width="91.07617" target-x="381.02893" target-y="404.14276"></path></g><g node-id="116"><g node-id="118"><path d="M 384.33 276.13 C 386.86 274.21 393.50 270.13 394.96 270.40 C 396.42 270.67 396.44 275.22 398.63 276.90 C 400.82 278.58 407.76 284.06 408.97 287.21 C 410.18 290.36 411.89 297.99 409.15 299.21 C 406.41 300.43 385.41 282.92 385.15 282.76 C 384.89 282.60 381.81 278.15 384.33 276.13 Z" fill="url(#未命名的渐变_25)" fill-rule="nonzero" group-id="1,2,3,5,7" id="Path-5" node-id="62" stroke="none" target-height="28.809998" target-width="27.249756" target-x="383.3648" target-y="270.4"></path><path d="M 389.41 280.08 L 390.29 286.93 C 388.09 285.15 386.35 283.81 385.64 283.11 Z" fill="#372732" fill-opacity="0.3" fill-rule="nonzero" group-id="1,2,3,5,7" id="Combined-Shape" node-id="63" stroke="none" target-height="6.850006" target-width="4.649994" target-x="385.64" target-y="280.08"></path><path d="M 393.12 270.89 C 393.68 270.57 394.33 270.43 394.98 270.49 C 396.44 270.77 396.45 275.32 398.64 277.00 C 400.83 278.68 407.77 284.16 408.98 287.31 C 410.19 290.46 411.90 298.09 409.16 299.31 C 408.96 299.36 408.76 299.36 408.56 299.31 C 408.79 298.12 408.90 296.92 408.90 295.71 C 408.66 292.91 407.81 287.58 403.75 283.66 C 399.69 279.74 396.11 278.29 394.61 273.87 C 394.21 272.83 393.71 271.84 393.12 270.89 Z" fill="#372732" fill-rule="nonzero" group-id="1,2,3,5,7" id="Path-6" node-id="64" stroke="none" target-height="28.820007" target-width="17.504517" target-x="393.12" target-y="270.49"></path></g><path d="M 306.30 278.30 C 306.30 278.30 339.20 305.30 345.90 306.00 C 350.80 306.50 355.80 302.10 361.00 299.00 C 366.20 295.90 388.60 282.30 389.30 280.60 C 390.00 278.90 387.60 278.00 387.60 278.00 C 379.11 279.72 370.75 282.06 362.60 285.00 C 350.60 289.50 347.50 292.60 347.50 292.60 L 322.30 257.30 C 322.30 257.30 314.40 260.20 310.40 265.90 C 307.96 269.60 306.54 273.88 306.30 278.30 Z" fill="url(#未命名的渐变_26)" fill-rule="nonzero" group-id="1,2,3,5" id="Path-7" node-id="65" stroke="none" target-height="48.700012" target-width="83.11493" target-x="306.3" target-y="257.3"></path><path d="M 323.60 259.20 L 323.90 259.60 C 320.56 262.53 317.51 265.78 314.80 269.30 C 312.44 272.73 310.37 276.34 308.60 280.10 C 307.87 279.46 307.10 278.86 306.30 278.30 C 306.31 278.03 306.34 277.76 306.40 277.50 L 311.40 264.90 C 312.05 264.15 312.75 263.45 313.50 262.80 Z" fill="#372732" fill-opacity="0.3" fill-rule="nonzero" group-id="1,2,3,5" id="Combined-Shape-2" node-id="66" stroke="none" target-height="20.899994" target-width="17.600006" target-x="306.3" target-y="259.2"></path><path d="M 379.40 279.80 C 381.80 279.30 387.60 278.00 387.60 278.00 C 387.60 278.00 390.00 278.90 389.30 280.60 C 389.00 281.20 386.00 283.30 383.50 285.00 C 383.49 282.53 381.80 280.39 379.40 279.80 Z" fill="#ffffff" fill-rule="nonzero" group-id="1,2,3,5" id="Path-8" node-id="67" stroke="none" target-height="7" target-width="10.014923" target-x="379.4" target-y="278"></path><path d="M 389.40 280.00 C 389.42 280.21 389.38 280.41 389.30 280.60 C 388.70 282.30 366.30 295.90 361.00 299.00 L 361.00 299.00 Z" fill="#372732" fill-opacity="0.3" fill-rule="nonzero" group-id="1,2,3,5" id="Combined-Shape-3" node-id="68" stroke="none" target-height="19" target-width="28.399994" target-x="361" target-y="280"></path><path d="M 273.30 248.10 C 273.30 248.10 233.40 252.90 225.90 257.00 C 218.40 261.10 205.50 269.90 194.20 275.60 C 182.90 281.30 165.40 284.90 165.40 284.90 L 166.80 290.40 C 166.80 290.40 205.20 286.10 218.90 279.30 C 232.60 272.50 236.50 268.40 236.50 268.40 C 236.50 268.40 255.80 273.10 266.50 272.80 C 274.10 272.50 281.67 271.53 289.10 269.90 C 289.00 258.10 283.70 251.10 273.30 248.10 Z" fill="url(#未命名的渐变_26-2)" fill-rule="nonzero" group-id="1,2,3,5" id="Path-9" node-id="69" stroke="none" target-height="42.299988" target-width="123.70001" target-x="165.4" target-y="248.1"></path><path d="M 235.60 268.20 C 236.04 268.25 236.48 268.35 236.90 268.50 C 236.79 268.50 236.68 268.47 236.60 268.40 C 236.60 268.40 232.70 272.40 219.00 279.30 C 218.90 279.30 218.90 279.40 218.80 279.40 C 228.10 271.90 233.70 268.20 235.60 268.20 Z" fill="#372732" fill-opacity="0.3" fill-rule="nonzero" group-id="1,2,3,5" id="Combined-Shape-4" node-id="70" stroke="none" target-height="11.199982" target-width="18.09999" target-x="218.8" target-y="268.2"></path><path d="M 273.30 248.10 C 283.60 251.10 289.00 258.10 289.20 269.90 C 289.20 269.90 286.30 270.60 282.10 271.30 C 280.80 267.40 279.60 263.90 278.40 261.00 C 276.38 256.48 273.72 252.27 270.50 248.50 L 270.50 248.50 C 272.30 248.20 273.30 248.10 273.30 248.10 Z" fill="#372732" fill-opacity="0.3" fill-rule="nonzero" group-id="1,2,3,5" id="Combined-Shape-5" node-id="71" stroke="none" target-height="23.199982" target-width="18.700012" target-x="270.5" target-y="248.1"></path><path d="M 173.30 283.10 C 174.31 283.65 175.09 284.53 175.50 285.60 C 175.80 286.80 176.10 288.50 175.20 289.30 C 170.20 290.00 166.90 290.40 166.90 290.40 L 165.50 284.90 C 165.60 284.90 168.80 284.30 173.30 283.10 Z" fill="#ffffff" fill-rule="nonzero" group-id="1,2,3,5" id="Path-10" node-id="72" stroke="none" target-height="7.299988" target-width="10.300003" target-x="165.5" target-y="283.1"></path><path d="M 147.50 264.10 C 143.00 266.20 143.60 275.00 146.10 279.70 C 148.35 283.84 150.10 288.24 151.30 292.80 C 152.60 297.80 155.70 302.40 159.60 301.50 C 163.50 300.60 171.10 295.10 172.90 293.20 C 173.80 292.30 172.60 291.20 170.70 289.90 C 168.80 288.60 167.60 286.70 169.30 284.60 C 171.00 282.50 171.60 282.40 168.90 281.10 C 166.20 279.80 165.10 280.20 163.20 277.80 C 161.30 275.40 152.30 261.80 147.50 264.10 Z" fill="url(#未命名的渐变_25-2)" fill-rule="nonzero" group-id="1,2,3,5" id="Path-11" node-id="73" stroke="none" target-height="37.740784" target-width="29.028534" target-x="144.175" target-y="263.85504"></path><path d="M 163.90 299.50 C 162.49 300.34 160.98 300.98 159.40 301.40 C 155.90 302.50 152.50 297.80 151.10 292.70 C 149.99 288.11 148.24 283.70 145.90 279.60 C 143.40 274.90 142.60 266.40 147.30 264.00 C 150.20 262.50 159.10 274.70 159.20 278.30 C 159.30 283.50 159.90 284.50 161.90 286.30 C 165.80 289.70 165.80 295.90 163.90 299.50 Z" fill="#372732" fill-rule="nonzero" group-id="1,2,3,5" id="Path-12" node-id="74" stroke="none" target-height="37.633667" target-width="21.191254" target-x="143.90134" target-y="263.91833"></path><path d="M 156.70 275.90 C 157.20 279.00 156.70 283.10 158.80 285.20 C 165.70 292.00 162.70 300.60 159.40 301.50 C 155.50 302.50 152.50 297.90 151.10 292.80 C 149.94 288.23 148.20 283.82 145.90 279.70 C 143.10 274.40 142.70 264.90 147.60 264.50 C 150.60 264.20 156.30 273.10 156.70 275.90 Z" fill="#ffdee6" fill-opacity="0.27" fill-rule="nonzero" group-id="1,2,3,5" id="Path-13" node-id="75" stroke="none" target-height="37.125427" target-width="19.0625" target-x="143.8625" target-y="264.5"></path><path d="M 265.40 193.80 C 262.90 194.30 238.90 203.60 235.10 204.70 C 231.30 205.80 229.90 207.00 226.10 209.80 C 221.10 213.50 195.70 229.20 194.60 231.50 C 193.50 233.80 193.20 235.50 193.80 235.60 C 194.40 235.70 195.80 232.30 195.80 232.30 C 195.80 232.30 194.50 235.90 195.50 236.00 C 196.50 236.10 198.00 232.00 198.00 232.00 C 198.00 232.00 196.20 236.30 197.40 236.50 C 198.60 236.70 198.70 233.90 200.30 232.20 C 201.69 230.98 203.33 230.06 205.10 229.50 C 205.73 230.09 205.96 230.98 205.70 231.80 C 205.30 233.20 203.60 235.10 204.50 235.70 C 205.40 236.30 207.90 233.10 208.50 231.60 C 209.10 230.10 208.10 226.50 209.50 225.70 C 210.90 224.90 229.90 217.60 233.50 216.20 C 237.10 214.80 238.60 213.10 240.70 212.40 C 242.80 211.70 262.40 209.30 262.40 209.30 C 272.50 207.90 276.00 192.60 265.40 193.80 Z" fill="url(#未命名的渐变_26-3)" fill-rule="nonzero" group-id="1,2,3,5" id="Path-14" node-id="76" stroke="none" target-height="42.705048" target-width="78.2944" target-x="193.5376" target-y="193.79495"></path><path d="M 265.50 206.30 L 265.00 208.60 C 264.20 208.94 263.36 209.17 262.50 209.30 C 262.50 209.30 242.80 211.70 240.80 212.40 C 240.70 212.40 240.60 212.50 240.50 212.50 C 241.57 211.69 242.80 211.11 244.10 210.80 C 246.50 210.30 253.70 208.80 265.50 206.30 Z" fill="#372732" fill-opacity="0.3" fill-rule="nonzero" group-id="1,2,3,5" id="Combined-Shape-6" node-id="77" stroke="none" target-height="6.199997" target-width="25" target-x="240.5" target-y="206.3"></path><path d="M 271.90 192.00 C 272.40 191.30 274.50 191.10 274.30 188.70 C 274.06 187.47 273.55 186.31 272.80 185.30 C 272.00 186.40 266.00 186.30 262.70 184.00 C 259.40 181.70 255.60 174.40 256.30 166.90 C 257.00 159.40 267.30 155.50 273.60 159.90 C 279.90 164.30 279.90 168.00 280.10 172.60 C 280.30 176.30 280.10 175.60 280.30 178.10 C 280.50 182.60 281.20 184.80 287.90 190.70 C 293.70 195.90 275.40 204.90 275.40 204.90 Z" fill="url(#未命名的渐变_26-4)" fill-rule="nonzero" group-id="1,2,3,5" id="Path-15" node-id="78" stroke="none" target-height="46.817184" target-width="32.74817" target-x="256.3" target-y="158.08281"></path><path d="M 286.50 189.40 L 275.80 204.80 C 275.71 204.85 275.61 204.89 275.50 204.90 L 272.00 192.40 C 271.98 192.19 272.02 191.99 272.10 191.80 L 272.10 191.80 C 273.30 196.00 274.50 197.90 275.80 197.70 C 277.10 197.50 280.60 194.70 286.40 189.30 C 286.46 189.30 286.50 189.34 286.50 189.40 Z" fill="#372732" fill-opacity="0.3" fill-rule="nonzero" group-id="1,2,3,5" id="Combined-Shape-7" node-id="79" stroke="none" target-height="15.599991" target-width="14.5" target-x="272" target-y="189.3"></path><path d="M 285.40 244.90 C 281.60 245.40 278.60 245.80 276.30 246.30 C 273.78 246.89 271.31 247.66 268.90 248.60 C 277.40 252.90 282.40 260.70 284.00 273.10 L 294.00 271.10 L 306.30 280.00 C 309.90 269.60 315.50 262.90 323.50 260.20 C 323.50 260.20 322.80 255.60 317.50 250.10 C 315.04 247.40 312.25 245.01 309.20 243.00 Z" fill="#e8e7e7" fill-rule="nonzero" group-id="1,2,3,5" id="Path-16" node-id="80" stroke="none" target-height="37" target-width="54.600006" target-x="268.9" target-y="243"></path><path d="M 314.60 266.20 L 300.50 243.30 L 304.70 243.00 L 317.20 263.70 C 316.26 264.45 315.39 265.29 314.60 266.20 Z" fill="url(#未命名的渐变_25-3)" fill-rule="nonzero" group-id="1,2,3,5" id="Path-17" node-id="81" stroke="none" target-height="23.200012" target-width="16.700012" target-x="300.5" target-y="243"></path><path d="M 265.50 193.70 C 264.82 193.81 264.15 193.97 263.50 194.20 C 262.80 194.50 261.50 195.30 261.70 200.10 C 261.80 203.30 262.10 206.60 262.40 209.80 Z" fill="#f3f3f3" fill-rule="nonzero" group-id="1,2,3,5" id="Path-28" node-id="82" stroke="none" target-height="16.100006" target-width="3.7999878" target-x="261.7" target-y="193.7"></path><path d="M 264.00 194.80 C 261.40 199.40 263.30 207.10 261.80 211.80 C 260.30 216.50 259.80 218.80 264.60 224.00 C 269.40 229.20 281.20 238.40 282.20 244.30 C 283.20 250.20 291.50 251.40 298.60 251.20 C 307.70 251.00 311.70 247.50 312.80 246.10 C 313.90 244.70 312.00 244.90 311.00 242.30 C 310.00 239.70 304.70 236.10 308.70 217.10 C 312.70 198.10 306.10 194.90 300.20 192.30 C 295.80 190.56 291.20 189.38 286.50 188.80 C 284.10 191.70 282.10 194.00 280.60 195.50 C 278.85 197.13 277.01 198.67 275.10 200.10 C 274.26 198.92 273.56 197.64 273.00 196.30 C 272.50 194.81 272.17 193.27 272.00 191.70 C 272.10 191.60 265.30 192.60 264.00 194.80 Z" fill="url(#未命名的渐变_25-4)" fill-rule="nonzero" group-id="1,2,3,5" id="Path-18" node-id="83" stroke="none" target-height="62.399994" target-width="52.33493" target-x="260.79254" target-y="188.8"></path><path d="M 265.50 211.20 C 265.50 211.20 265.90 220.20 270.10 225.50 C 272.54 228.60 275.21 231.51 278.10 234.20 L 297.00 234.20 C 297.00 234.20 292.00 227.60 290.90 222.50 C 289.80 217.40 290.90 210.20 290.90 210.20 C 279.40 211.80 272.20 212.40 265.50 211.20 Z" fill="#f3f3f3" fill-rule="nonzero" group-id="1,2,3,5" id="Path-19" node-id="84" stroke="none" target-height="24" target-width="31.5" target-x="265.5" target-y="210.2"></path><path d="M 308.30 204.10 C 308.90 205.00 309.50 205.80 310.00 206.70 C 309.97 210.17 309.57 213.62 308.80 217.00 C 307.85 221.17 307.38 225.43 307.40 229.70 C 302.10 231.50 293.40 231.00 281.30 228.30 Z" fill="#372732" fill-opacity="0.3" fill-rule="nonzero" group-id="1,2,3,5" id="Combined-Shape-8" node-id="85" stroke="none" target-height="26.645477" target-width="28.700012" target-x="281.3" target-y="204.1"></path><path d="M 289.30 203.70 L 262.50 232.40 C 262.50 232.40 258.70 231.70 251.50 233.70 C 244.30 235.70 217.30 245.50 214.70 245.90 C 212.10 246.30 210.90 245.40 208.00 245.40 C 205.10 245.40 204.30 246.70 202.50 248.40 C 200.63 250.32 198.92 252.39 197.40 254.60 C 196.60 255.70 197.20 255.40 197.70 255.60 C 198.20 255.80 196.50 256.60 197.00 257.20 C 197.50 257.80 201.60 253.90 202.60 253.30 C 203.60 252.70 206.40 253.80 208.20 253.10 C 210.00 252.40 211.60 250.40 213.90 249.80 C 216.20 249.20 260.20 247.80 266.70 243.70 C 273.20 239.60 306.50 210.60 306.50 210.60 C 313.40 202.40 299.00 194.00 289.30 203.70 Z" fill="url(#未命名的渐变_26-5)" fill-rule="nonzero" group-id="1,2,3,5" id="Path-20" node-id="86" stroke="none" target-height="57.857254" target-width="111.37979" target-x="196.91223" target-y="199.35146"></path><path d="M 299.90 202.30 L 307.80 208.70 C 307.47 209.38 307.07 210.01 306.60 210.60 C 306.60 210.60 280.60 233.30 270.10 241.40 C 291.70 223.20 301.60 212.40 300.00 208.90 C 298.50 205.70 295.00 204.00 289.40 203.70 L 289.40 203.70 Z" fill="#372732" fill-opacity="0.3" fill-rule="nonzero" group-id="1,2,3,5" id="Combined-Shape-9" node-id="87" stroke="none" target-height="39.09999" target-width="37.69998" target-x="270.1" target-y="202.3"></path><path d="M 288.30 204.20 C 288.80 204.20 296.00 202.20 301.20 205.00 C 306.40 207.80 305.50 211.90 305.90 212.00 C 306.30 212.10 311.60 204.10 306.90 200.70 C 297.70 194.20 287.80 204.20 288.30 204.20 Z" fill="#f3f3f3" fill-rule="nonzero" group-id="1,2,3,5" id="Path-21" node-id="88" stroke="none" target-height="13.431992" target-width="20.482819" target-x="288.3" target-y="198.56801"></path><path d="M 279.70 162.50 C 279.70 162.50 280.50 154.20 288.50 153.10 C 296.50 152.00 297.40 159.50 301.30 161.20 C 307.00 163.60 312.70 155.80 312.70 155.80 C 312.70 155.80 311.80 165.20 308.90 168.80 C 306.50 171.90 299.10 176.60 293.40 172.40 C 288.80 169.00 289.00 166.00 285.00 165.20 C 283.69 164.84 282.29 165.10 281.20 165.90 Z" fill="url(#未命名的渐变_38)" fill-rule="nonzero" group-id="1,2,3,5" id="Path-22" node-id="89" stroke="none" target-height="21.037476" target-width="33" target-x="279.7" target-y="153.00784"></path><path d="M 274.90 161.50 C 274.90 161.50 278.60 160.30 279.70 161.20 C 280.80 162.10 282.30 165.30 282.10 166.30 C 281.90 167.30 279.20 168.20 279.20 168.20 Z" fill="url(#未命名的渐变_30)" fill-rule="nonzero" group-id="1,2,3,5" id="Path-23" node-id="90" stroke="none" target-height="7.3222046" target-width="7.200012" target-x="274.9" target-y="160.87779"></path><path d="M 255.50 169.90 C 256.60 171.11 258.16 171.80 259.80 171.80 C 262.50 171.70 265.60 170.10 267.50 171.60 C 269.40 173.10 270.80 175.50 271.60 175.40 C 272.40 175.30 270.80 172.20 272.10 170.70 C 273.40 169.20 276.40 169.40 277.00 171.60 C 277.60 173.80 276.50 176.80 276.50 176.80 L 280.60 180.20 C 280.60 180.20 281.30 173.80 281.20 170.70 C 281.14 165.80 278.47 161.30 274.20 158.90 C 269.26 155.98 262.99 156.58 258.70 160.40 C 256.14 162.85 254.95 166.40 255.50 169.90 Z" fill="url(#未命名的渐变_38-2)" fill-rule="nonzero" group-id="1,2,3,5" id="Path-24" node-id="91" stroke="none" target-height="23.076782" target-width="25.791351" target-x="255.40866" target-y="157.12321"></path><path d="M 266.00 165.50 C 270.77 165.59 275.55 165.39 280.30 164.90 L 281.30 168.30 C 281.30 168.30 272.00 169.80 266.00 169.60 C 255.50 169.30 254.70 168.10 254.70 168.10 L 255.50 164.20 C 258.95 165.00 262.46 165.43 266.00 165.50 Z" fill="url(#未命名的渐变_30-2)" fill-rule="nonzero" group-id="1,2,3,5" id="Path-25" node-id="92" stroke="none" target-height="5.400009" target-width="26.59999" target-x="254.7" target-y="164.2"></path></g><g node-id="117"><g node-id="119"><path d="M 206.00 311.10 L 397.80 311.10 C 398.28 311.10 398.74 311.29 399.08 311.62 C 399.41 311.96 399.60 312.42 399.60 312.90 L 399.60 319.70 C 399.60 320.18 399.41 320.64 399.08 320.98 C 398.74 321.31 398.28 321.50 397.80 321.50 L 206.00 321.50 C 205.52 321.50 205.06 321.31 204.72 320.98 C 204.39 320.64 204.20 320.18 204.20 319.70 L 204.20 312.90 C 204.20 312.42 204.39 311.96 204.72 311.62 C 205.06 311.29 205.52 311.10 206.00 311.10 Z" fill="#ffb678" fill-rule="nonzero" group-id="1,2,3,6,8" id="Rectangle-2" node-id="95" stroke="none" target-height="10.399994" target-width="195.40001" target-x="204.2" target-y="311.1"></path></g><g node-id="120"><path d="M 293.90 311.10 L 303.80 321.50 L 206.00 321.50 C 205.52 321.50 205.06 321.31 204.72 320.98 C 204.39 320.64 204.20 320.18 204.20 319.70 L 204.20 319.70 L 204.20 312.90 C 204.20 312.42 204.39 311.96 204.72 311.62 C 205.06 311.29 205.52 311.10 206.00 311.10 Z" fill="url(#未命名的渐变_36)" fill-rule="nonzero" group-id="1,2,3,6,9" id="Path-26" node-id="97" stroke="none" target-height="10.399994" target-width="99.59999" target-x="204.2" target-y="311.1"></path></g><path d="M 399.60 312.90 L 399.60 319.70 C 399.60 320.18 399.41 320.64 399.08 320.98 C 398.74 321.31 398.28 321.50 397.80 321.50 L 375.30 321.50 L 385.40 311.10 L 397.80 311.10 C 398.28 311.10 398.74 311.29 399.08 311.62 C 399.41 311.96 399.60 312.42 399.60 312.90 Z" fill="url(#未命名的渐变_36-2)" fill-rule="nonzero" group-id="1,2,3,6" id="Path-27" node-id="98" stroke="none" target-height="10.399994" target-width="24.300018" target-x="375.3" target-y="311.1"></path><path d="M 393.92 315.44 C 394.82 315.43 395.69 315.79 396.33 316.43 C 396.97 317.07 397.33 317.94 397.32 318.84 L 397.32 395.84 L 390.52 395.84 L 390.52 318.84 C 390.51 317.94 390.87 317.07 391.51 316.43 C 392.15 315.79 393.02 315.43 393.92 315.44 Z" fill="url(#未命名的渐变_36-3)" fill-rule="nonzero" group-id="1,2,3,6,10" id="Rectangle-3" node-id="100" stroke="none" target-height="80.399994" target-width="6.8000183" target-x="390.52" target-y="315.44"></path><path d="M 397.32 355.24 L 397.32 367.84 L 390.52 367.84 L 390.52 355.24 Z" fill="#ffb678" fill-rule="nonzero" group-id="1,2,3,6,10" id="Combined-Shape-10" node-id="101" stroke="none" target-height="12.600006" target-width="6.8000183" target-x="390.52" target-y="355.24"></path><path d="M 389.42 379.54 L 398.42 379.54 L 398.42 397.54 L 389.42 397.54 Z" fill="url(#未命名的渐变_38-3)" fill-rule="nonzero" group-id="1,2,3,6,10" id="Rectangle-4" node-id="102" stroke="none" target-height="18" target-width="9" target-x="389.42" target-y="379.54"></path><path d="M 393.92 313.64 C 395.06 313.63 396.16 314.08 396.97 314.89 C 397.78 315.70 398.23 316.80 398.22 317.94 L 398.22 330.00 C 398.22 330.50 397.82 330.90 397.32 330.90 L 390.52 330.90 C 390.02 330.90 389.62 330.50 389.62 330.00 L 389.62 330.00 L 389.62 317.90 L 389.62 317.90 C 389.62 316.76 390.08 315.68 390.88 314.88 C 391.69 314.08 392.78 313.63 393.92 313.64 Z" fill="url(#未命名的渐变_38-4)" fill-rule="nonzero" group-id="1,2,3,6,10" id="Path-28-2" node-id="103" stroke="none" target-height="17.25998" target-width="8.600006" target-x="389.62" target-y="313.64"></path><path d="M 211.22 315.44 C 212.12 315.43 212.99 315.79 213.63 316.43 C 214.27 317.07 214.63 317.94 214.62 318.84 L 214.62 395.84 L 207.82 395.84 L 207.82 318.84 C 207.81 317.94 208.17 317.07 208.81 316.43 C 209.45 315.79 210.32 315.43 211.22 315.44 Z" fill="url(#未命名的渐变_36-4)" fill-rule="nonzero" group-id="1,2,3,6,11" id="Rectangle-5" node-id="105" stroke="none" target-height="80.399994" target-width="6.799988" target-x="207.82" target-y="315.44"></path><path d="M 214.62 355.24 L 214.62 367.84 L 207.82 367.84 L 207.82 355.24 Z" fill="#ffb678" fill-rule="nonzero" group-id="1,2,3,6,11" id="Combined-Shape-11" node-id="106" stroke="none" target-height="12.600006" target-width="6.799988" target-x="207.82" target-y="355.24"></path><path d="M 206.72 378.54 L 215.72 378.54 L 215.72 396.54 L 206.72 396.54 Z" fill="url(#未命名的渐变_38-5)" fill-rule="nonzero" group-id="1,2,3,6,11" id="Rectangle-6" node-id="107" stroke="none" target-height="18" target-width="9" target-x="206.72" target-y="378.54"></path><path d="M 211.22 313.64 C 212.36 313.63 213.46 314.08 214.27 314.89 C 215.08 315.70 215.53 316.80 215.52 317.94 L 215.52 330.00 C 215.52 330.50 215.12 330.90 214.62 330.90 L 207.82 330.90 C 207.32 330.90 206.92 330.50 206.92 330.00 L 206.92 330.00 L 206.92 317.90 L 206.92 317.90 C 206.92 316.76 207.38 315.68 208.18 314.88 C 208.99 314.08 210.08 313.63 211.22 313.64 Z" fill="url(#未命名的渐变_38-6)" fill-rule="nonzero" group-id="1,2,3,6,11" id="Path-29" node-id="108" stroke="none" target-height="17.25998" target-width="8.600006" target-x="206.92" target-y="313.64"></path></g></g></g></g></svg>